<svg xmlns="http://www.w3.org/2000/svg" xmlns:svg="http://www.w3.org/2000/svg" id="svg310" width="1280" height="720" version="1.1" viewBox="0 0 1280 720" xml:space="preserve"><metadata id="metadata316"/><defs id="defs314"><clipPath id="clipPath326" clipPathUnits="userSpaceOnUse"><path id="path324" d="M 0,1.2207e-4 H 960 V 540.00012 H 0 Z" clip-rule="evenodd"/></clipPath><clipPath id="clipPath350" clipPathUnits="userSpaceOnUse"><path id="path348" d="M 0,1.8311e-4 H 960 V 540.00018 H 0 Z" clip-rule="evenodd"/></clipPath><clipPath id="clipPath360" clipPathUnits="userSpaceOnUse"><path id="path358" d="M 1.4305e-5,0 H 960.00001 V 540 H 1.4305e-5 Z" clip-rule="evenodd"/></clipPath><clipPath id="clipPath376" clipPathUnits="userSpaceOnUse"><path id="path374" d="M 1.4305e-5,0 H 960.00001 V 540 H 1.4305e-5 Z" clip-rule="evenodd"/></clipPath><clipPath id="clipPath392" clipPathUnits="userSpaceOnUse"><path id="path390" d="M 1.4305e-5,0 H 960.00001 V 540 H 1.4305e-5 Z" clip-rule="evenodd"/></clipPath><clipPath id="clipPath408" clipPathUnits="userSpaceOnUse"><path id="path406" d="M 1.4305e-5,0 H 960.00001 V 540 H 1.4305e-5 Z" clip-rule="evenodd"/></clipPath><clipPath id="clipPath424" clipPathUnits="userSpaceOnUse"><path id="path422" d="M 1.4305e-5,0 H 960.00001 V 540 H 1.4305e-5 Z" clip-rule="evenodd"/></clipPath><clipPath id="clipPath440" clipPathUnits="userSpaceOnUse"><path id="path438" d="M 1.4305e-5,0 H 960.00001 V 540 H 1.4305e-5 Z" clip-rule="evenodd"/></clipPath><clipPath id="clipPath456" clipPathUnits="userSpaceOnUse"><path id="path454" d="M 1.4305e-5,0 H 960.00001 V 540 H 1.4305e-5 Z" clip-rule="evenodd"/></clipPath><clipPath id="clipPath472" clipPathUnits="userSpaceOnUse"><path id="path470" d="M 1.4305e-5,0 H 960.00001 V 540 H 1.4305e-5 Z" clip-rule="evenodd"/></clipPath><clipPath id="clipPath488" clipPathUnits="userSpaceOnUse"><path id="path486" d="M 1.4305e-5,0 H 960.00001 V 540 H 1.4305e-5 Z" clip-rule="evenodd"/></clipPath><clipPath id="clipPath504" clipPathUnits="userSpaceOnUse"><path id="path502" d="M 1.4305e-5,0 H 960.00001 V 540 H 1.4305e-5 Z" clip-rule="evenodd"/></clipPath><clipPath id="clipPath520" clipPathUnits="userSpaceOnUse"><path id="path518" d="M 1.4305e-5,0 H 960.00001 V 540 H 1.4305e-5 Z" clip-rule="evenodd"/></clipPath><clipPath id="clipPath534" clipPathUnits="userSpaceOnUse"><path id="path532" d="M 0,1.2207e-4 H 960 V 540.00012 H 0 Z" clip-rule="evenodd"/></clipPath><clipPath id="clipPath544" clipPathUnits="userSpaceOnUse"><path id="path542" d="M 1.4305e-5,0 H 960.00001 V 540 H 1.4305e-5 Z" clip-rule="evenodd"/></clipPath><clipPath id="clipPath560" clipPathUnits="userSpaceOnUse"><path id="path558" d="M 1.4305e-5,0 H 960.00001 V 540 H 1.4305e-5 Z" clip-rule="evenodd"/></clipPath><clipPath id="clipPath576" clipPathUnits="userSpaceOnUse"><path id="path574" d="M 1.4305e-5,0 H 960.00001 V 540 H 1.4305e-5 Z" clip-rule="evenodd"/></clipPath></defs><g id="g318" transform="matrix(1.3333333,0,0,-1.3333333,0,720)"><g id="g320"><g id="g322" clip-path="url(#clipPath326)"><path id="path328" fill="#fff" fill-opacity="1" fill-rule="evenodd" stroke="none" d="M 0,6.1035e-5 H 960 V 540.00006 H 0 Z"/></g></g><path id="path330" fill="none" stroke="#34599c" stroke-dasharray="none" stroke-linecap="butt" stroke-linejoin="miter" stroke-miterlimit="10" stroke-opacity="1" stroke-width=".96" d="M 471.12,447.36 V 415.57 H 710.25 V 394.04"/><path id="path332" fill="none" stroke="#3d67b1" stroke-dasharray="none" stroke-linecap="butt" stroke-linejoin="miter" stroke-miterlimit="10" stroke-opacity="1" stroke-width=".96" d="M 471.12,156.24 V 102.92"/><path id="path334" fill="none" stroke="#3d67b1" stroke-dasharray="none" stroke-linecap="butt" stroke-linejoin="miter" stroke-miterlimit="10" stroke-opacity="1" stroke-width=".96" d="M 471.12,301.8 V 248.48"/><path id="path336" fill="none" stroke="#34599c" stroke-dasharray="none" stroke-linecap="butt" stroke-linejoin="miter" stroke-miterlimit="10" stroke-opacity="1" stroke-width=".96" d="M 471.12,447.36 V 394.04"/><path id="path338" fill="none" stroke="#3d67b1" stroke-dasharray="none" stroke-linecap="butt" stroke-linejoin="miter" stroke-miterlimit="10" stroke-opacity="1" stroke-width=".96" d="M 231.96,301.8 V 248.48"/><path id="path340" fill="none" stroke="#34599c" stroke-dasharray="none" stroke-linecap="butt" stroke-linejoin="miter" stroke-miterlimit="10" stroke-opacity="1" stroke-width=".96" d="M 471.09,447.36 V 415.57 H 231.96 v -21.53"/><path id="path342" fill="#a5a5a5" fill-opacity="1" fill-rule="evenodd" stroke="none" d="m 381.96,447.36 h 178.2 v 92.28 h -178.2 z"/><g id="g344"><g id="g346" clip-path="url(#clipPath350)"><path id="path352" fill="none" stroke="#fff" stroke-dasharray="none" stroke-linecap="butt" stroke-linejoin="miter" stroke-miterlimit="10" stroke-opacity="1" stroke-width=".96" d="m 381.96,447.36 h 178.2 v 92.28 h -178.2 z"/></g></g><g id="g354"><g id="g356" clip-path="url(#clipPath360)"><text id="text364" fill="#fff" fill-opacity="1" fill-rule="nonzero" stroke="none" font-family="Calibri" font-size="56.04" font-variant="normal" font-weight="normal" transform="matrix(1,0,0,-1,422.86,482.95)" writing-mode="lr-tb" style="-inkscape-font-specification:Calibri"><tspan id="tspan362" x="0 18.717 48.25 77.784" y="0">root</tspan></text></g></g><path id="path366" fill="#fff" fill-opacity=".902" fill-rule="evenodd" stroke="none" d="m 417.6,437.16 h 160.44 v 30.72 H 417.6 Z"/><path id="path368" fill="none" stroke="#4472c4" stroke-dasharray="none" stroke-linecap="butt" stroke-linejoin="miter" stroke-miterlimit="10" stroke-opacity="1" stroke-width=".96" d="m 417.6,437.16 h 160.44 v 30.72 H 417.6 Z"/><g id="g370"><g id="g372" clip-path="url(#clipPath376)"><text id="text380" fill="#000" fill-opacity="1" fill-rule="nonzero" stroke="none" font-family="Calibri" font-size="24.96" font-variant="normal" font-weight="normal" transform="matrix(1,0,0,-1,498.41,445.46)" writing-mode="lr-tb" style="-inkscape-font-specification:Calibri"><tspan id="tspan378" x="0 15.35 27.531 38.014 50.244 62.4" y="0">DELETE</tspan></text></g></g><path id="path382" fill="#70ad47" fill-opacity="1" fill-rule="evenodd" stroke="none" d="m 142.8,301.8 h 178.32 v 92.28 H 142.8 Z"/><path id="path384" fill="none" stroke="#fff" stroke-dasharray="none" stroke-linecap="butt" stroke-linejoin="miter" stroke-miterlimit="10" stroke-opacity="1" stroke-width=".96" d="m 142.8,301.8 h 178.32 v 92.28 H 142.8 Z"/><g id="g386"><g id="g388" clip-path="url(#clipPath392)"><text id="text396" fill="#fff" fill-opacity="1" fill-rule="nonzero" stroke="none" font-family="Calibri" font-size="56.064" font-variant="normal" font-weight="normal" transform="matrix(1,0,0,-1,177.22,337.32)" writing-mode="lr-tb" style="-inkscape-font-specification:Calibri"><tspan id="tspan394" x="0 29.041 45.58 61.054 87.46" y="0">nffgs</tspan></text></g></g><path id="path398" fill="#fff" fill-opacity=".902" fill-rule="evenodd" stroke="none" d="m 178.44,291.48 h 160.44 v 30.84 H 178.44 Z"/><path id="path400" fill="none" stroke="#4472c4" stroke-dasharray="none" stroke-linecap="butt" stroke-linejoin="miter" stroke-miterlimit="10" stroke-opacity="1" stroke-width=".96" d="m 178.44,291.48 h 160.44 v 30.84 H 178.44 Z"/><g id="g402"><g id="g404" clip-path="url(#clipPath408)"><text id="text412" fill="#000" fill-opacity="1" fill-rule="nonzero" stroke="none" font-family="Calibri" font-size="24.96" font-variant="normal" font-weight="normal" transform="matrix(1,0,0,-1,231.5,299.83)" writing-mode="lr-tb" style="-inkscape-font-specification:Calibri"><tspan id="tspan410" x="0 15.75 27.93 37.565 43.805 49.446 62.35 78.874 90.255" y="0">GET, POST</tspan></text></g></g><path id="path414" fill="#70ad47" fill-opacity="1" fill-rule="evenodd" stroke="none" d="m 142.8,156.24 h 178.32 v 92.28 H 142.8 Z"/><path id="path416" fill="none" stroke="#fff" stroke-dasharray="none" stroke-linecap="butt" stroke-linejoin="miter" stroke-miterlimit="10" stroke-opacity="1" stroke-width=".96" d="m 142.8,156.24 h 178.32 v 92.28 H 142.8 Z"/><g id="g418"><g id="g420" clip-path="url(#clipPath424)"><text id="text428" fill="#fff" fill-opacity="1" fill-rule="nonzero" stroke="none" font-family="Calibri" font-size="56.064" font-variant="normal" font-weight="normal" transform="matrix(1,0,0,-1,188.26,191.69)" writing-mode="lr-tb" style="-inkscape-font-specification:Calibri"><tspan id="tspan426" x="0 29.041 45.58 61.054" y="0">nffg</tspan></text></g></g><path id="path430" fill="#fff" fill-opacity=".902" fill-rule="evenodd" stroke="none" d="m 178.44,145.92 h 160.44 v 30.72 H 178.44 Z"/><path id="path432" fill="none" stroke="#4472c4" stroke-dasharray="none" stroke-linecap="butt" stroke-linejoin="miter" stroke-miterlimit="10" stroke-opacity="1" stroke-width=".96" d="m 178.44,145.92 h 160.44 v 30.72 H 178.44 Z"/><g id="g434"><g id="g436" clip-path="url(#clipPath440)"><text id="text444" fill="#000" fill-opacity="1" fill-rule="nonzero" stroke="none" font-family="Calibri" font-size="24.96" font-variant="normal" font-weight="normal" transform="matrix(1,0,0,-1,209.78,154.2)" writing-mode="lr-tb" style="-inkscape-font-specification:Calibri"><tspan id="tspan442" x="0 15.75 27.93 37.565 43.805 49.446 64.796 76.977 87.46 99.69 111.846" y="0">GET, DELETE</tspan></text></g></g><path id="path446" fill="#70ad47" fill-opacity="1" fill-rule="evenodd" stroke="none" d="m 381.96,301.8 h 178.2 v 92.28 h -178.2 z"/><path id="path448" fill="none" stroke="#fff" stroke-dasharray="none" stroke-linecap="butt" stroke-linejoin="miter" stroke-miterlimit="10" stroke-opacity="1" stroke-width=".96" d="m 381.96,301.8 h 178.2 v 92.28 h -178.2 z"/><g id="g450"><g id="g452" clip-path="url(#clipPath456)"><text id="text460" fill="#fff" fill-opacity="1" fill-rule="nonzero" stroke="none" font-family="Calibri" font-size="56.064" font-variant="normal" font-weight="normal" transform="matrix(1,0,0,-1,385.66,337.32)" writing-mode="lr-tb" style="-inkscape-font-specification:Calibri"><tspan id="tspan458" x="0 29.434 58.979 71.874 84.601 108.316 121.21 148.906" y="0">policies</tspan></text></g></g><path id="path462" fill="#fff" fill-opacity=".902" fill-rule="evenodd" stroke="none" d="m 417.6,291.48 h 160.44 v 30.84 H 417.6 Z"/><path id="path464" fill="none" stroke="#4472c4" stroke-dasharray="none" stroke-linecap="butt" stroke-linejoin="miter" stroke-miterlimit="10" stroke-opacity="1" stroke-width=".96" d="m 417.6,291.48 h 160.44 v 30.84 H 417.6 Z"/><g id="g466"><g id="g468" clip-path="url(#clipPath472)"><text id="text476" fill="#000" fill-opacity="1" fill-rule="nonzero" stroke="none" font-family="Calibri" font-size="24.96" font-variant="normal" font-weight="normal" transform="matrix(1,0,0,-1,448.94,299.83)" writing-mode="lr-tb" style="-inkscape-font-specification:Calibri"><tspan id="tspan474" x="0 15.75 27.93 37.565 43.805 49.446 64.796 76.977 87.46 99.69 111.846" y="0">GET, DELETE</tspan></text></g></g><path id="path478" fill="#70ad47" fill-opacity="1" fill-rule="evenodd" stroke="none" d="m 381.96,156.24 h 178.2 v 92.28 h -178.2 z"/><path id="path480" fill="none" stroke="#fff" stroke-dasharray="none" stroke-linecap="butt" stroke-linejoin="miter" stroke-miterlimit="10" stroke-opacity="1" stroke-width=".96" d="m 381.96,156.24 h 178.2 v 92.28 h -178.2 z"/><g id="g482"><g id="g484" clip-path="url(#clipPath488)"><text id="text492" fill="#fff" fill-opacity="1" fill-rule="nonzero" stroke="none" font-family="Calibri" font-size="56.064" font-variant="normal" font-weight="normal" transform="matrix(1,0,0,-1,404.38,191.69)" writing-mode="lr-tb" style="-inkscape-font-specification:Calibri"><tspan id="tspan490" x="0 29.434 58.979 71.874 84.601 108.316" y="0">policy</tspan></text></g></g><path id="path494" fill="#fff" fill-opacity=".902" fill-rule="evenodd" stroke="none" d="m 417.6,145.92 h 160.44 v 30.72 H 417.6 Z"/><path id="path496" fill="none" stroke="#4472c4" stroke-dasharray="none" stroke-linecap="butt" stroke-linejoin="miter" stroke-miterlimit="10" stroke-opacity="1" stroke-width=".96" d="m 417.6,145.92 h 160.44 v 30.72 H 417.6 Z"/><g id="g498"><g id="g500" clip-path="url(#clipPath504)"><text id="text508" fill="#000" fill-opacity="1" fill-rule="nonzero" stroke="none" font-family="Calibri" font-size="21" font-variant="normal" font-weight="normal" transform="matrix(1,0,0,-1,427.27,155.35)" writing-mode="lr-tb" style="-inkscape-font-specification:Calibri"><tspan id="tspan506" x="0 13.251 23.394 31.437 36.687 41.496 52.353 65.73 73.773 79.023 83.958 96.873 107.121 115.941 126.189 136.416" y="0">GET, PUT, DELETE</tspan></text></g></g><path id="path510" fill="#70ad47" fill-opacity="1" fill-rule="evenodd" stroke="none" d="m 381.96,10.56 h 178.2 v 92.28 h -178.2 z"/><path id="path512" fill="none" stroke="#fff" stroke-dasharray="none" stroke-linecap="butt" stroke-linejoin="miter" stroke-miterlimit="10" stroke-opacity="1" stroke-width=".96" d="m 381.96,10.56 h 178.2 v 92.28 h -178.2 z"/><g id="g514"><g id="g516" clip-path="url(#clipPath520)"><text id="text524" fill="#fff" fill-opacity="1" fill-rule="nonzero" stroke="none" font-family="Calibri" font-size="56.04" font-variant="normal" font-weight="normal" transform="matrix(1,0,0,-1,406.3,46.032)" writing-mode="lr-tb" style="-inkscape-font-specification:Calibri"><tspan id="tspan522" x="0 18.829 46.737 68.649 98.07 110.959" y="0">result</tspan></text></g></g><path id="path526" fill="#fff" fill-opacity=".902" fill-rule="evenodd" stroke="none" d="m 417.6,0.36005 h 160.44 v 30.72 H 417.6 Z"/><g id="g528"><g id="g530" clip-path="url(#clipPath534)"><path id="path536" fill="none" stroke="#4472c4" stroke-dasharray="none" stroke-linecap="butt" stroke-linejoin="miter" stroke-miterlimit="10" stroke-opacity="1" stroke-width=".96" d="m 417.6,0.36005 h 160.44 v 30.72 H 417.6 Z"/></g></g><g id="g538"><g id="g540" clip-path="url(#clipPath544)"><text id="text548" fill="#000" fill-opacity="1" fill-rule="nonzero" stroke="none" font-family="Calibri" font-size="24.984" font-variant="normal" font-weight="normal" transform="matrix(1,0,0,-1,520.13,8.568)" writing-mode="lr-tb" style="-inkscape-font-specification:Calibri"><tspan id="tspan546" x="0 12.842 29.381 40.849" y="0">POST</tspan></text></g></g><path id="path550" fill="#70ad47" fill-opacity="1" fill-rule="evenodd" stroke="none" d="m 621.12,301.8 h 178.2 v 92.28 h -178.2 z"/><path id="path552" fill="none" stroke="#fff" stroke-dasharray="none" stroke-linecap="butt" stroke-linejoin="miter" stroke-miterlimit="10" stroke-opacity="1" stroke-width=".96" d="m 621.12,301.8 h 178.2 v 92.28 h -178.2 z"/><g id="g554"><g id="g556" clip-path="url(#clipPath560)"><text id="text564" fill="#fff" fill-opacity="1" fill-rule="nonzero" stroke="none" font-family="Calibri" font-size="56.064" font-variant="normal" font-weight="normal" transform="matrix(1,0,0,-1,643.9,337.32)" writing-mode="lr-tb" style="-inkscape-font-specification:Calibri"><tspan id="tspan562" x="0 18.109 46.029 67.333 85.442 113.361" y="0">tester</tspan></text></g></g><path id="path566" fill="#fff" fill-opacity=".902" fill-rule="evenodd" stroke="none" d="M 656.76,291.48 H 817.2 v 30.84 H 656.76 Z"/><path id="path568" fill="none" stroke="#4472c4" stroke-dasharray="none" stroke-linecap="butt" stroke-linejoin="miter" stroke-miterlimit="10" stroke-opacity="1" stroke-width=".96" d="M 656.76,291.48 H 817.2 v 30.84 H 656.76 Z"/><g id="g570"><g id="g572" clip-path="url(#clipPath576)"><text id="text580" fill="#000" fill-opacity="1" fill-rule="nonzero" stroke="none" font-family="Calibri" font-size="24.96" font-variant="normal" font-weight="normal" transform="matrix(1,0,0,-1,759.29,299.83)" writing-mode="lr-tb" style="-inkscape-font-specification:Calibri"><tspan id="tspan578" x="0 12.904 29.428 40.81" y="0">POST</tspan></text></g></g></g></svg>