<?xml version="1.0" encoding="UTF-8" standalone="no"?>
<svg
   xmlns:dc="http://purl.org/dc/elements/1.1/"
   xmlns:cc="http://creativecommons.org/ns#"
   xmlns:rdf="http://www.w3.org/1999/02/22-rdf-syntax-ns#"
   xmlns:svg="http://www.w3.org/2000/svg"
   xmlns="http://www.w3.org/2000/svg"
   viewBox="0 0 1280 720"
   height="720"
   width="1280"
   xml:space="preserve"
   id="svg334"
   version="1.1"><metadata
     id="metadata340"><rdf:RDF><cc:Work
         rdf:about=""><dc:format>image/svg+xml</dc:format><dc:type
           rdf:resource="http://purl.org/dc/dcmitype/StillImage" /><dc:title></dc:title></cc:Work></rdf:RDF></metadata><defs
     id="defs338"><clipPath
       id="clipPath350"
       clipPathUnits="userSpaceOnUse"><path
         style="clip-rule:evenodd"
         id="path348"
         d="M 0,1.2207e-4 H 960 V 540.00012 H 0 Z" /></clipPath><clipPath
       id="clipPath374"
       clipPathUnits="userSpaceOnUse"><path
         style="clip-rule:evenodd"
         id="path372"
         d="M 0,1.8311e-4 H 960 V 540.00018 H 0 Z" /></clipPath><clipPath
       id="clipPath384"
       clipPathUnits="userSpaceOnUse"><path
         style="clip-rule:evenodd"
         id="path382"
         d="M 1.4305e-5,0 H 960.00001 V 540 H 1.4305e-5 Z" /></clipPath><clipPath
       id="clipPath404"
       clipPathUnits="userSpaceOnUse"><path
         style="clip-rule:evenodd"
         id="path402"
         d="M 1.4305e-5,0 H 960.00001 V 540 H 1.4305e-5 Z" /></clipPath><clipPath
       id="clipPath420"
       clipPathUnits="userSpaceOnUse"><path
         style="clip-rule:evenodd"
         id="path418"
         d="M 1.4305e-5,0 H 960.00001 V 540 H 1.4305e-5 Z" /></clipPath><clipPath
       id="clipPath436"
       clipPathUnits="userSpaceOnUse"><path
         style="clip-rule:evenodd"
         id="path434"
         d="M 1.4305e-5,0 H 960.00001 V 540 H 1.4305e-5 Z" /></clipPath><clipPath
       id="clipPath452"
       clipPathUnits="userSpaceOnUse"><path
         style="clip-rule:evenodd"
         id="path450"
         d="M 1.4305e-5,0 H 960.00001 V 540 H 1.4305e-5 Z" /></clipPath><clipPath
       id="clipPath468"
       clipPathUnits="userSpaceOnUse"><path
         style="clip-rule:evenodd"
         id="path466"
         d="M 1.4305e-5,0 H 960.00001 V 540 H 1.4305e-5 Z" /></clipPath><clipPath
       id="clipPath482"
       clipPathUnits="userSpaceOnUse"><path
         style="clip-rule:evenodd"
         id="path480"
         d="M 0,1.2207e-4 H 960 V 540.00012 H 0 Z" /></clipPath><clipPath
       id="clipPath492"
       clipPathUnits="userSpaceOnUse"><path
         style="clip-rule:evenodd"
         id="path490"
         d="M 1.4305e-5,0 H 960.00001 V 540 H 1.4305e-5 Z" /></clipPath><clipPath
       id="clipPath508"
       clipPathUnits="userSpaceOnUse"><path
         style="clip-rule:evenodd"
         id="path506"
         d="M 1.4305e-5,0 H 960.00001 V 540 H 1.4305e-5 Z" /></clipPath><clipPath
       id="clipPath524"
       clipPathUnits="userSpaceOnUse"><path
         style="clip-rule:evenodd"
         id="path522"
         d="M 1.4305e-5,0 H 960.00001 V 540 H 1.4305e-5 Z" /></clipPath><clipPath
       id="clipPath540"
       clipPathUnits="userSpaceOnUse"><path
         style="clip-rule:evenodd"
         id="path538"
         d="M 1.4305e-5,0 H 960.00001 V 540 H 1.4305e-5 Z" /></clipPath><clipPath
       id="clipPath556"
       clipPathUnits="userSpaceOnUse"><path
         style="clip-rule:evenodd"
         id="path554"
         d="M 1.4305e-5,0 H 960.00001 V 540 H 1.4305e-5 Z" /></clipPath><clipPath
       id="clipPath572"
       clipPathUnits="userSpaceOnUse"><path
         style="clip-rule:evenodd"
         id="path570"
         d="M 1.4305e-5,0 H 960.00001 V 540 H 1.4305e-5 Z" /></clipPath><clipPath
       id="clipPath586"
       clipPathUnits="userSpaceOnUse"><path
         style="clip-rule:evenodd"
         id="path584"
         d="M 0,1.2207e-4 H 960 V 540.00012 H 0 Z" /></clipPath><clipPath
       id="clipPath596"
       clipPathUnits="userSpaceOnUse"><path
         style="clip-rule:evenodd"
         id="path594"
         d="M 1.4305e-5,0 H 960.00001 V 540 H 1.4305e-5 Z" /></clipPath></defs><g
     transform="matrix(1.3333333,0,0,-1.3333333,0,720)"
     id="g342"><g
       id="g344"><g
         clip-path="url(#clipPath350)"
         id="g346"><path
           id="path352"
           style="fill:#ffffff;fill-opacity:1;fill-rule:evenodd;stroke:none"
           d="M 0,6.1035e-5 H 960 V 540.00006 H 0 Z" /></g></g><path
       id="path354"
       style="fill:none;stroke:#3d67b1;stroke-width:0.95999998;stroke-linecap:butt;stroke-linejoin:miter;stroke-miterlimit:10;stroke-dasharray:none;stroke-opacity:1"
       d="M 554.4,156.12 V 102.76" /><path
       id="path356"
       style="fill:none;stroke:#3d67b1;stroke-width:0.95999998;stroke-linecap:butt;stroke-linejoin:miter;stroke-miterlimit:10;stroke-dasharray:none;stroke-opacity:1"
       d="M 554.4,301.8 V 248.44" /><path
       id="path358"
       style="fill:none;stroke:#34599c;stroke-width:0.95999998;stroke-linecap:butt;stroke-linejoin:miter;stroke-miterlimit:10;stroke-dasharray:none;stroke-opacity:1"
       d="M 434.76,447.48 V 415.67 H 554.42 V 394.12" /><path
       id="path360"
       style="fill:none;stroke:#3d67b1;stroke-width:0.95999998;stroke-linecap:butt;stroke-linejoin:miter;stroke-miterlimit:10;stroke-dasharray:none;stroke-opacity:1"
       d="M 315,156.12 V 102.76" /><path
       id="path362"
       style="fill:none;stroke:#3d67b1;stroke-width:0.95999998;stroke-linecap:butt;stroke-linejoin:miter;stroke-miterlimit:10;stroke-dasharray:none;stroke-opacity:1"
       d="M 315,301.8 V 248.44" /><path
       id="path364"
       style="fill:none;stroke:#34599c;stroke-width:0.95999998;stroke-linecap:butt;stroke-linejoin:miter;stroke-miterlimit:10;stroke-dasharray:none;stroke-opacity:1"
       d="M 434.66,447.48 V 415.67 H 315 v -21.55" /><path
       id="path366"
       style="fill:#a5a5a5;fill-opacity:1;fill-rule:evenodd;stroke:none"
       d="m 345.48,447.48 h 178.44 v 92.4 H 345.48 Z" /><g
       id="g368"><g
         clip-path="url(#clipPath374)"
         id="g370"><path
           id="path376"
           style="fill:none;stroke:#ffffff;stroke-width:0.95999998;stroke-linecap:butt;stroke-linejoin:miter;stroke-miterlimit:10;stroke-dasharray:none;stroke-opacity:1"
           d="m 345.48,447.48 h 178.44 v 92.4 H 345.48 Z" /></g></g><g
       id="g378"><g
         clip-path="url(#clipPath384)"
         id="g380"><text
           id="text388"
           style="font-variant:normal;font-weight:normal;font-size:32.06399918px;font-family:Calibri;-inkscape-font-specification:Calibri;writing-mode:lr-tb;fill:#ffffff;fill-opacity:1;fill-rule:nonzero;stroke:none"
           transform="matrix(1,0,0,-1,407.18,490.49)"><tspan
             id="tspan386"
             y="0"
             x="0 10.677312 27.575041 44.472767">root</tspan></text>
</g></g><path
       id="path390"
       style="fill:#ffffff;fill-opacity:0.90196001;fill-rule:evenodd;stroke:none"
       d="M 381.24,437.28 H 541.8 v 30.84 H 381.24 Z" /><path
       id="path392"
       style="fill:none;stroke:#4472c4;stroke-width:0.95999998;stroke-linecap:butt;stroke-linejoin:miter;stroke-miterlimit:10;stroke-dasharray:none;stroke-opacity:1"
       d="M 381.24,437.28 H 541.8 v 30.84 H 381.24 Z" /><path
       id="path394"
       style="fill:#70ad47;fill-opacity:1;fill-rule:evenodd;stroke:none"
       d="m 225.84,301.8 h 178.44 v 92.4 H 225.84 Z" /><path
       id="path396"
       style="fill:none;stroke:#ffffff;stroke-width:0.95999998;stroke-linecap:butt;stroke-linejoin:miter;stroke-miterlimit:10;stroke-dasharray:none;stroke-opacity:1"
       d="m 225.84,301.8 h 178.44 v 92.4 H 225.84 Z" /><g
       id="g398"><g
         clip-path="url(#clipPath404)"
         id="g400"><text
           id="text408"
           style="font-variant:normal;font-weight:normal;font-size:32.06399918px;font-family:Calibri;-inkscape-font-specification:Calibri;writing-mode:lr-tb;fill:#ffffff;fill-opacity:1;fill-rule:nonzero;stroke:none"
           transform="matrix(1,0,0,-1,283.9,344.74)"><tspan
             id="tspan406"
             y="0"
             x="0 16.545025 25.907713 34.661182 49.763329">nffgs</tspan></text>
</g></g><path
       id="path410"
       style="fill:#ffffff;fill-opacity:0.90196001;fill-rule:evenodd;stroke:none"
       d="m 261.48,291.6 h 160.56 v 30.72 H 261.48 Z" /><path
       id="path412"
       style="fill:none;stroke:#4472c4;stroke-width:0.95999998;stroke-linecap:butt;stroke-linejoin:miter;stroke-miterlimit:10;stroke-dasharray:none;stroke-opacity:1"
       d="m 261.48,291.6 h 160.56 v 30.72 H 261.48 Z" /><g
       id="g414"><g
         clip-path="url(#clipPath420)"
         id="g416"><text
           id="text424"
           style="font-variant:normal;font-weight:normal;font-size:24.95999908px;font-family:Calibri;-inkscape-font-specification:Calibri;writing-mode:lr-tb;fill:#000000;fill-opacity:1;fill-rule:nonzero;stroke:none"
           transform="matrix(1,0,0,-1,314.81,299.86)"><tspan
             id="tspan422"
             y="0"
             x="0 15.74976 27.930241 37.5648 43.804798 49.445759 62.350079 78.873596 90.255363">GET, POST</tspan></text>
</g></g><path
       id="path426"
       style="fill:#70ad47;fill-opacity:1;fill-rule:evenodd;stroke:none"
       d="M 225.84,156.12 H 404.28 V 248.4 H 225.84 Z" /><path
       id="path428"
       style="fill:none;stroke:#ffffff;stroke-width:0.95999998;stroke-linecap:butt;stroke-linejoin:miter;stroke-miterlimit:10;stroke-dasharray:none;stroke-opacity:1"
       d="M 225.84,156.12 H 404.28 V 248.4 H 225.84 Z" /><g
       id="g430"><g
         clip-path="url(#clipPath436)"
         id="g432"><text
           id="text440"
           style="font-variant:normal;font-weight:normal;font-size:32.04000092px;font-family:Calibri;-inkscape-font-specification:Calibri;writing-mode:lr-tb;fill:#ffffff;fill-opacity:1;fill-rule:nonzero;stroke:none"
           transform="matrix(1,0,0,-1,290.14,198.96)"><tspan
             id="tspan438"
             y="0"
             x="0 16.56468 25.920361 34.667278">nffg</tspan></text>
</g></g><path
       id="path442"
       style="fill:#ffffff;fill-opacity:0.90196001;fill-rule:evenodd;stroke:none"
       d="m 261.48,145.8 h 160.56 v 30.84 H 261.48 Z" /><path
       id="path444"
       style="fill:none;stroke:#4472c4;stroke-width:0.95999998;stroke-linecap:butt;stroke-linejoin:miter;stroke-miterlimit:10;stroke-dasharray:none;stroke-opacity:1"
       d="m 261.48,145.8 h 160.56 v 30.84 H 261.48 Z" /><g
       id="g446"><g
         clip-path="url(#clipPath452)"
         id="g448"><text
           id="text456"
           style="font-variant:normal;font-weight:normal;font-size:24.95999908px;font-family:Calibri;-inkscape-font-specification:Calibri;writing-mode:lr-tb;fill:#000000;fill-opacity:1;fill-rule:nonzero;stroke:none"
           transform="matrix(1,0,0,-1,293.09,154.1)"><tspan
             id="tspan454"
             y="0"
             x="0 15.74976 27.930241 37.5648 43.804798 49.445759 64.796158 76.976639 87.459839 99.690239 111.84576">GET, DELETE</tspan></text>
</g></g><path
       id="path458"
       style="fill:#70ad47;fill-opacity:1;fill-rule:evenodd;stroke:none"
       d="m 225.84,10.32 h 178.44 v 92.4 H 225.84 Z" /><path
       id="path460"
       style="fill:none;stroke:#ffffff;stroke-width:0.95999998;stroke-linecap:butt;stroke-linejoin:miter;stroke-miterlimit:10;stroke-dasharray:none;stroke-opacity:1"
       d="m 225.84,10.32 h 178.44 v 92.4 H 225.84 Z" /><g
       id="g462"><g
         clip-path="url(#clipPath468)"
         id="g464"><text
           id="text472"
           style="font-variant:normal;font-weight:normal;font-size:32.04000092px;font-family:Calibri;-inkscape-font-specification:Calibri;writing-mode:lr-tb;fill:#ffffff;fill-opacity:1;fill-rule:nonzero;stroke:none"
           transform="matrix(1,0,0,-1,229.54,53.208)"><tspan
             id="tspan470"
             y="0"
             x="0 16.88508 33.706081 41.075279 48.444481 65.169357 81.125282 97.0812 107.87868 123.8346 136.36224 153.18324 160.42429">online_result</tspan></text>
</g></g><path
       id="path474"
       style="fill:#ffffff;fill-opacity:0.90196001;fill-rule:evenodd;stroke:none"
       d="m 261.48,0.12006 h 160.56 v 30.72 H 261.48 Z" /><g
       id="g476"><g
         clip-path="url(#clipPath482)"
         id="g478"><path
           id="path484"
           style="fill:none;stroke:#4472c4;stroke-width:0.95999998;stroke-linecap:butt;stroke-linejoin:miter;stroke-miterlimit:10;stroke-dasharray:none;stroke-opacity:1"
           d="m 261.48,0.12006 h 160.56 v 30.72 H 261.48 Z" /></g></g><g
       id="g486"><g
         clip-path="url(#clipPath492)"
         id="g488"><text
           id="text496"
           style="font-variant:normal;font-weight:normal;font-size:24.95999908px;font-family:Calibri;-inkscape-font-specification:Calibri;writing-mode:lr-tb;fill:#000000;fill-opacity:1;fill-rule:nonzero;stroke:none"
           transform="matrix(1,0,0,-1,364.25,8.352)"><tspan
             id="tspan494"
             y="0"
             x="0 12.90432 29.427839 40.88448">POST</tspan></text>
</g></g><path
       id="path498"
       style="fill:#70ad47;fill-opacity:1;fill-rule:evenodd;stroke:none"
       d="m 465.24,301.8 h 178.32 v 92.4 H 465.24 Z" /><path
       id="path500"
       style="fill:none;stroke:#ffffff;stroke-width:0.95999998;stroke-linecap:butt;stroke-linejoin:miter;stroke-miterlimit:10;stroke-dasharray:none;stroke-opacity:1"
       d="m 465.24,301.8 h 178.32 v 92.4 H 465.24 Z" /><g
       id="g502"><g
         clip-path="url(#clipPath508)"
         id="g504"><text
           id="text512"
           style="font-variant:normal;font-weight:normal;font-size:32.06399918px;font-family:Calibri;-inkscape-font-specification:Calibri;writing-mode:lr-tb;fill:#ffffff;fill-opacity:1;fill-rule:nonzero;stroke:none"
           transform="matrix(1,0,0,-1,505.61,344.74)"><tspan
             id="tspan510"
             y="0"
             x="0 16.833599 33.731327 41.106049 48.352512 61.915585 69.290306 85.258179">policies</tspan></text>
</g></g><path
       id="path514"
       style="fill:#ffffff;fill-opacity:0.90196001;fill-rule:evenodd;stroke:none"
       d="m 500.88,291.6 h 160.56 v 30.72 H 500.88 Z" /><path
       id="path516"
       style="fill:none;stroke:#4472c4;stroke-width:0.95999998;stroke-linecap:butt;stroke-linejoin:miter;stroke-miterlimit:10;stroke-dasharray:none;stroke-opacity:1"
       d="m 500.88,291.6 h 160.56 v 30.72 H 500.88 Z" /><g
       id="g518"><g
         clip-path="url(#clipPath524)"
         id="g520"><text
           id="text528"
           style="font-variant:normal;font-weight:normal;font-size:24.95999908px;font-family:Calibri;-inkscape-font-specification:Calibri;writing-mode:lr-tb;fill:#000000;fill-opacity:1;fill-rule:nonzero;stroke:none"
           transform="matrix(1,0,0,-1,616.46,299.86)"><tspan
             id="tspan526"
             y="0"
             x="0 15.74976 27.930241">GET</tspan></text>
</g></g><path
       id="path530"
       style="fill:#70ad47;fill-opacity:1;fill-rule:evenodd;stroke:none"
       d="M 465.24,156.12 H 643.56 V 248.4 H 465.24 Z" /><path
       id="path532"
       style="fill:none;stroke:#ffffff;stroke-width:0.95999998;stroke-linecap:butt;stroke-linejoin:miter;stroke-miterlimit:10;stroke-dasharray:none;stroke-opacity:1"
       d="M 465.24,156.12 H 643.56 V 248.4 H 465.24 Z" /><g
       id="g534"><g
         clip-path="url(#clipPath540)"
         id="g536"><text
           id="text544"
           style="font-variant:normal;font-weight:normal;font-size:32.04000092px;font-family:Calibri;-inkscape-font-specification:Calibri;writing-mode:lr-tb;fill:#ffffff;fill-opacity:1;fill-rule:nonzero;stroke:none"
           transform="matrix(1,0,0,-1,516.17,198.96)"><tspan
             id="tspan542"
             y="0"
             x="0 16.820999 33.706081 41.075279 48.444481 61.997398">policy</tspan></text>
</g></g><path
       id="path546"
       style="fill:#ffffff;fill-opacity:0.90196001;fill-rule:evenodd;stroke:none"
       d="m 500.88,145.8 h 160.56 v 30.84 H 500.88 Z" /><path
       id="path548"
       style="fill:none;stroke:#4472c4;stroke-width:0.95999998;stroke-linecap:butt;stroke-linejoin:miter;stroke-miterlimit:10;stroke-dasharray:none;stroke-opacity:1"
       d="m 500.88,145.8 h 160.56 v 30.84 H 500.88 Z" /><g
       id="g550"><g
         clip-path="url(#clipPath556)"
         id="g552"><text
           id="text560"
           style="font-variant:normal;font-weight:normal;font-size:21px;font-family:Calibri;-inkscape-font-specification:Calibri;writing-mode:lr-tb;fill:#000000;fill-opacity:1;fill-rule:nonzero;stroke:none"
           transform="matrix(1,0,0,-1,510.65,155.26)"><tspan
             id="tspan558"
             y="0"
             x="0 13.251 23.393999 31.437 36.687 41.495998 52.353001 65.730003 73.773003 79.023003 83.958 96.873001 107.121 115.941 126.189 136.416">GET, PUT, DELETE</tspan></text>
</g></g><path
       id="path562"
       style="fill:#70ad47;fill-opacity:1;fill-rule:evenodd;stroke:none"
       d="m 465.24,10.32 h 178.32 v 92.4 H 465.24 Z" /><path
       id="path564"
       style="fill:none;stroke:#ffffff;stroke-width:0.95999998;stroke-linecap:butt;stroke-linejoin:miter;stroke-miterlimit:10;stroke-dasharray:none;stroke-opacity:1"
       d="m 465.24,10.32 h 178.32 v 92.4 H 465.24 Z" /><g
       id="g566"><g
         clip-path="url(#clipPath572)"
         id="g568"><text
           id="text576"
           style="font-variant:normal;font-weight:normal;font-size:32.04000092px;font-family:Calibri;-inkscape-font-specification:Calibri;writing-mode:lr-tb;fill:#ffffff;fill-opacity:1;fill-rule:nonzero;stroke:none"
           transform="matrix(1,0,0,-1,517.37,53.208)"><tspan
             id="tspan574"
             y="0"
             x="0 10.79748 26.753401 39.28104 56.102039 63.343079">result</tspan></text>
</g></g><path
       id="path578"
       style="fill:#ffffff;fill-opacity:0.90196001;fill-rule:evenodd;stroke:none"
       d="m 500.88,0.12006 h 160.56 v 30.72 H 500.88 Z" /><g
       id="g580"><g
         clip-path="url(#clipPath586)"
         id="g582"><path
           id="path588"
           style="fill:none;stroke:#4472c4;stroke-width:0.95999998;stroke-linecap:butt;stroke-linejoin:miter;stroke-miterlimit:10;stroke-dasharray:none;stroke-opacity:1"
           d="m 500.88,0.12006 h 160.56 v 30.72 H 500.88 Z" /></g></g><g
       id="g590"><g
         clip-path="url(#clipPath596)"
         id="g592"><text
           id="text600"
           style="font-variant:normal;font-weight:normal;font-size:24.95999908px;font-family:Calibri;-inkscape-font-specification:Calibri;writing-mode:lr-tb;fill:#000000;fill-opacity:1;fill-rule:nonzero;stroke:none"
           transform="matrix(1,0,0,-1,603.62,8.352)"><tspan
             id="tspan598"
             y="0"
             x="0 12.90432 29.427839 40.809601">POST</tspan></text>
</g></g></g></svg>