<?xml version="1.0" encoding="UTF-8" standalone="no"?>
<svg
   xmlns:dc="http://purl.org/dc/elements/1.1/"
   xmlns:cc="http://creativecommons.org/ns#"
   xmlns:rdf="http://www.w3.org/1999/02/22-rdf-syntax-ns#"
   xmlns:svg="http://www.w3.org/2000/svg"
   xmlns="http://www.w3.org/2000/svg"
   viewBox="0 0 1280 720"
   height="720"
   width="1280"
   xml:space="preserve"
   id="svg392"
   version="1.1"><metadata
     id="metadata398"><rdf:RDF><cc:Work
         rdf:about=""><dc:format>image/svg+xml</dc:format><dc:type
           rdf:resource="http://purl.org/dc/dcmitype/StillImage" /><dc:title></dc:title></cc:Work></rdf:RDF></metadata><defs
     id="defs396"><clipPath
       id="clipPath408"
       clipPathUnits="userSpaceOnUse"><path
         style="clip-rule:evenodd"
         id="path406"
         d="M 0,1.2207e-4 H 960 V 540.00012 H 0 Z" /></clipPath><clipPath
       id="clipPath432"
       clipPathUnits="userSpaceOnUse"><path
         style="clip-rule:evenodd"
         id="path430"
         d="M 0,1.8311e-4 H 960 V 540.00018 H 0 Z" /></clipPath><clipPath
       id="clipPath442"
       clipPathUnits="userSpaceOnUse"><path
         style="clip-rule:evenodd"
         id="path440"
         d="M 1.4305e-5,0 H 960.00001 V 540 H 1.4305e-5 Z" /></clipPath><clipPath
       id="clipPath462"
       clipPathUnits="userSpaceOnUse"><path
         style="clip-rule:evenodd"
         id="path460"
         d="M 1.4305e-5,0 H 960.00001 V 540 H 1.4305e-5 Z" /></clipPath><clipPath
       id="clipPath478"
       clipPathUnits="userSpaceOnUse"><path
         style="clip-rule:evenodd"
         id="path476"
         d="M 1.4305e-5,0 H 960.00001 V 540 H 1.4305e-5 Z" /></clipPath><clipPath
       id="clipPath494"
       clipPathUnits="userSpaceOnUse"><path
         style="clip-rule:evenodd"
         id="path492"
         d="M 1.4305e-5,0 H 960.00001 V 540 H 1.4305e-5 Z" /></clipPath><clipPath
       id="clipPath510"
       clipPathUnits="userSpaceOnUse"><path
         style="clip-rule:evenodd"
         id="path508"
         d="M 1.4305e-5,0 H 960.00001 V 540 H 1.4305e-5 Z" /></clipPath><clipPath
       id="clipPath526"
       clipPathUnits="userSpaceOnUse"><path
         style="clip-rule:evenodd"
         id="path524"
         d="M 1.4305e-5,0 H 960.00001 V 540 H 1.4305e-5 Z" /></clipPath><clipPath
       id="clipPath540"
       clipPathUnits="userSpaceOnUse"><path
         style="clip-rule:evenodd"
         id="path538"
         d="M 0,1.2207e-4 H 960 V 540.00012 H 0 Z" /></clipPath><clipPath
       id="clipPath550"
       clipPathUnits="userSpaceOnUse"><path
         style="clip-rule:evenodd"
         id="path548"
         d="M 1.4305e-5,0 H 960.00001 V 540 H 1.4305e-5 Z" /></clipPath><clipPath
       id="clipPath566"
       clipPathUnits="userSpaceOnUse"><path
         style="clip-rule:evenodd"
         id="path564"
         d="M 1.4305e-5,0 H 960.00001 V 540 H 1.4305e-5 Z" /></clipPath><clipPath
       id="clipPath582"
       clipPathUnits="userSpaceOnUse"><path
         style="clip-rule:evenodd"
         id="path580"
         d="M 1.4305e-5,0 H 960.00001 V 540 H 1.4305e-5 Z" /></clipPath><clipPath
       id="clipPath598"
       clipPathUnits="userSpaceOnUse"><path
         style="clip-rule:evenodd"
         id="path596"
         d="M 1.4305e-5,0 H 960.00001 V 540 H 1.4305e-5 Z" /></clipPath><clipPath
       id="clipPath614"
       clipPathUnits="userSpaceOnUse"><path
         style="clip-rule:evenodd"
         id="path612"
         d="M 1.4305e-5,0 H 960.00001 V 540 H 1.4305e-5 Z" /></clipPath><clipPath
       id="clipPath630"
       clipPathUnits="userSpaceOnUse"><path
         style="clip-rule:evenodd"
         id="path628"
         d="M 1.4305e-5,0 H 960.00001 V 540 H 1.4305e-5 Z" /></clipPath><clipPath
       id="clipPath644"
       clipPathUnits="userSpaceOnUse"><path
         style="clip-rule:evenodd"
         id="path642"
         d="M 0,1.2207e-4 H 960 V 540.00012 H 0 Z" /></clipPath><clipPath
       id="clipPath654"
       clipPathUnits="userSpaceOnUse"><path
         style="clip-rule:evenodd"
         id="path652"
         d="M 1.4305e-5,0 H 960.00001 V 540 H 1.4305e-5 Z" /></clipPath><clipPath
       id="clipPath670"
       clipPathUnits="userSpaceOnUse"><path
         style="clip-rule:evenodd"
         id="path668"
         d="M 1.4305e-5,0 H 960.00001 V 540 H 1.4305e-5 Z" /></clipPath><clipPath
       id="clipPath686"
       clipPathUnits="userSpaceOnUse"><path
         style="clip-rule:evenodd"
         id="path684"
         d="M 1.4305e-5,0 H 960.00001 V 540 H 1.4305e-5 Z" /></clipPath><clipPath
       id="clipPath702"
       clipPathUnits="userSpaceOnUse"><path
         style="clip-rule:evenodd"
         id="path700"
         d="M 1.4305e-5,0 H 960.00001 V 540 H 1.4305e-5 Z" /></clipPath><clipPath
       id="clipPath714"
       clipPathUnits="userSpaceOnUse"><path
         style="clip-rule:evenodd"
         id="path712"
         d="M 1.4305e-5,0 H 960.00001 V 540 H 1.4305e-5 Z" /></clipPath><clipPath
       id="clipPath726"
       clipPathUnits="userSpaceOnUse"><path
         style="clip-rule:evenodd"
         id="path724"
         d="M 1.4305e-5,0 H 960.00001 V 540 H 1.4305e-5 Z" /></clipPath></defs><g
     transform="matrix(1.3333333,0,0,-1.3333333,0,720)"
     id="g400"><g
       id="g402"><g
         clip-path="url(#clipPath408)"
         id="g404"><path
           id="path410"
           style="fill:#ffffff;fill-opacity:1;fill-rule:evenodd;stroke:none"
           d="M 0,6.1035e-5 H 960 V 540.00006 H 0 Z" /></g></g><path
       id="path412"
       style="fill:none;stroke:#3d67b1;stroke-width:0.95999998;stroke-linecap:butt;stroke-linejoin:miter;stroke-miterlimit:10;stroke-dasharray:none;stroke-opacity:1"
       d="M 554.4,156.12 V 102.76" /><path
       id="path414"
       style="fill:none;stroke:#3d67b1;stroke-width:0.95999998;stroke-linecap:butt;stroke-linejoin:miter;stroke-miterlimit:10;stroke-dasharray:none;stroke-opacity:1"
       d="M 554.4,301.8 V 248.44" /><path
       id="path416"
       style="fill:none;stroke:#34599c;stroke-width:0.95999998;stroke-linecap:butt;stroke-linejoin:miter;stroke-miterlimit:10;stroke-dasharray:none;stroke-opacity:1"
       d="M 434.76,447.48 V 415.67 H 554.42 V 394.12" /><path
       id="path418"
       style="fill:none;stroke:#3d67b1;stroke-width:0.95999998;stroke-linecap:butt;stroke-linejoin:miter;stroke-miterlimit:10;stroke-dasharray:none;stroke-opacity:1"
       d="M 315,156.12 V 102.76" /><path
       id="path420"
       style="fill:none;stroke:#3d67b1;stroke-width:0.95999998;stroke-linecap:butt;stroke-linejoin:miter;stroke-miterlimit:10;stroke-dasharray:none;stroke-opacity:1"
       d="M 315,301.8 V 248.44" /><path
       id="path422"
       style="fill:none;stroke:#34599c;stroke-width:0.95999998;stroke-linecap:butt;stroke-linejoin:miter;stroke-miterlimit:10;stroke-dasharray:none;stroke-opacity:1"
       d="M 434.66,447.48 V 415.67 H 315 v -21.55" /><path
       id="path424"
       style="fill:#a5a5a5;fill-opacity:1;fill-rule:evenodd;stroke:none"
       d="m 345.48,447.48 h 178.44 v 92.4 H 345.48 Z" /><g
       id="g426"><g
         clip-path="url(#clipPath432)"
         id="g428"><path
           id="path434"
           style="fill:none;stroke:#ffffff;stroke-width:0.95999998;stroke-linecap:butt;stroke-linejoin:miter;stroke-miterlimit:10;stroke-dasharray:none;stroke-opacity:1"
           d="m 345.48,447.48 h 178.44 v 92.4 H 345.48 Z" /></g></g><g
       id="g436"><g
         clip-path="url(#clipPath442)"
         id="g438"><text
           id="text446"
           style="font-variant:normal;font-weight:normal;font-size:32.06399918px;font-family:Calibri;-inkscape-font-specification:Calibri;writing-mode:lr-tb;fill:#ffffff;fill-opacity:1;fill-rule:nonzero;stroke:none"
           transform="matrix(1,0,0,-1,407.18,490.49)"><tspan
             id="tspan444"
             y="0"
             x="0 10.677312 27.575041 44.472767">root</tspan></text>
</g></g><path
       id="path448"
       style="fill:#ffffff;fill-opacity:0.90196001;fill-rule:evenodd;stroke:none"
       d="M 381.24,437.28 H 541.8 v 30.84 H 381.24 Z" /><path
       id="path450"
       style="fill:none;stroke:#4472c4;stroke-width:0.95999998;stroke-linecap:butt;stroke-linejoin:miter;stroke-miterlimit:10;stroke-dasharray:none;stroke-opacity:1"
       d="M 381.24,437.28 H 541.8 v 30.84 H 381.24 Z" /><path
       id="path452"
       style="fill:#70ad47;fill-opacity:1;fill-rule:evenodd;stroke:none"
       d="m 225.84,301.8 h 178.44 v 92.4 H 225.84 Z" /><path
       id="path454"
       style="fill:none;stroke:#ffffff;stroke-width:0.95999998;stroke-linecap:butt;stroke-linejoin:miter;stroke-miterlimit:10;stroke-dasharray:none;stroke-opacity:1"
       d="m 225.84,301.8 h 178.44 v 92.4 H 225.84 Z" /><g
       id="g456"><g
         clip-path="url(#clipPath462)"
         id="g458"><text
           id="text466"
           style="font-variant:normal;font-weight:normal;font-size:32.06399918px;font-family:Calibri;-inkscape-font-specification:Calibri;writing-mode:lr-tb;fill:#ffffff;fill-opacity:1;fill-rule:nonzero;stroke:none"
           transform="matrix(1,0,0,-1,283.9,344.74)"><tspan
             id="tspan464"
             y="0"
             x="0 16.545025 25.907713 34.661182 49.763329">nffgs</tspan></text>
</g></g><path
       id="path468"
       style="fill:#ffffff;fill-opacity:0.90196001;fill-rule:evenodd;stroke:none"
       d="m 261.48,291.6 h 160.56 v 30.72 H 261.48 Z" /><path
       id="path470"
       style="fill:none;stroke:#4472c4;stroke-width:0.95999998;stroke-linecap:butt;stroke-linejoin:miter;stroke-miterlimit:10;stroke-dasharray:none;stroke-opacity:1"
       d="m 261.48,291.6 h 160.56 v 30.72 H 261.48 Z" /><g
       id="g472"><g
         clip-path="url(#clipPath478)"
         id="g474"><text
           id="text482"
           style="font-variant:normal;font-weight:normal;font-size:24.95999908px;font-family:Calibri;-inkscape-font-specification:Calibri;writing-mode:lr-tb;fill:#000000;fill-opacity:1;fill-rule:nonzero;stroke:none"
           transform="matrix(1,0,0,-1,314.81,299.86)"><tspan
             id="tspan480"
             y="0"
             x="0 15.74976 27.930241 37.5648 43.804798 49.445759 62.350079 78.873596 90.255363">GET, POST</tspan></text>
</g></g><path
       id="path484"
       style="fill:#70ad47;fill-opacity:1;fill-rule:evenodd;stroke:none"
       d="M 225.84,156.12 H 404.28 V 248.4 H 225.84 Z" /><path
       id="path486"
       style="fill:none;stroke:#ffffff;stroke-width:0.95999998;stroke-linecap:butt;stroke-linejoin:miter;stroke-miterlimit:10;stroke-dasharray:none;stroke-opacity:1"
       d="M 225.84,156.12 H 404.28 V 248.4 H 225.84 Z" /><g
       id="g488"><g
         clip-path="url(#clipPath494)"
         id="g490"><text
           id="text498"
           style="font-variant:normal;font-weight:normal;font-size:32.04000092px;font-family:Calibri;-inkscape-font-specification:Calibri;writing-mode:lr-tb;fill:#ffffff;fill-opacity:1;fill-rule:nonzero;stroke:none"
           transform="matrix(1,0,0,-1,290.14,198.96)"><tspan
             id="tspan496"
             y="0"
             x="0 16.56468 25.920361 34.667278">nffg</tspan></text>
</g></g><path
       id="path500"
       style="fill:#ffffff;fill-opacity:0.90196001;fill-rule:evenodd;stroke:none"
       d="m 261.48,145.8 h 160.56 v 30.84 H 261.48 Z" /><path
       id="path502"
       style="fill:none;stroke:#4472c4;stroke-width:0.95999998;stroke-linecap:butt;stroke-linejoin:miter;stroke-miterlimit:10;stroke-dasharray:none;stroke-opacity:1"
       d="m 261.48,145.8 h 160.56 v 30.84 H 261.48 Z" /><g
       id="g504"><g
         clip-path="url(#clipPath510)"
         id="g506"><text
           id="text514"
           style="font-variant:normal;font-weight:normal;font-size:24.95999908px;font-family:Calibri;-inkscape-font-specification:Calibri;writing-mode:lr-tb;fill:#000000;fill-opacity:1;fill-rule:nonzero;stroke:none"
           transform="matrix(1,0,0,-1,293.09,154.1)"><tspan
             id="tspan512"
             y="0"
             x="0 15.74976 27.930241 37.5648 43.804798 49.445759 64.796158 76.976639 87.459839 99.690239 111.84576">GET, DELETE</tspan></text>
</g></g><path
       id="path516"
       style="fill:#70ad47;fill-opacity:1;fill-rule:evenodd;stroke:none"
       d="m 225.84,10.32 h 178.44 v 92.4 H 225.84 Z" /><path
       id="path518"
       style="fill:none;stroke:#ffffff;stroke-width:0.95999998;stroke-linecap:butt;stroke-linejoin:miter;stroke-miterlimit:10;stroke-dasharray:none;stroke-opacity:1"
       d="m 225.84,10.32 h 178.44 v 92.4 H 225.84 Z" /><g
       id="g520"><g
         clip-path="url(#clipPath526)"
         id="g522"><text
           id="text530"
           style="font-variant:normal;font-weight:normal;font-size:32.04000092px;font-family:Calibri;-inkscape-font-specification:Calibri;writing-mode:lr-tb;fill:#ffffff;fill-opacity:1;fill-rule:nonzero;stroke:none"
           transform="matrix(1,0,0,-1,229.54,53.208)"><tspan
             id="tspan528"
             y="0"
             x="0 16.88508 33.706081 41.075279 48.444481 65.169357 81.125282 97.0812 107.87868 123.8346 136.36224 153.18324 160.42429">online_result</tspan></text>
</g></g><path
       id="path532"
       style="fill:#ffffff;fill-opacity:0.90196001;fill-rule:evenodd;stroke:none"
       d="m 261.48,0.12006 h 160.56 v 30.72 H 261.48 Z" /><g
       id="g534"><g
         clip-path="url(#clipPath540)"
         id="g536"><path
           id="path542"
           style="fill:none;stroke:#4472c4;stroke-width:0.95999998;stroke-linecap:butt;stroke-linejoin:miter;stroke-miterlimit:10;stroke-dasharray:none;stroke-opacity:1"
           d="m 261.48,0.12006 h 160.56 v 30.72 H 261.48 Z" /></g></g><g
       id="g544"><g
         clip-path="url(#clipPath550)"
         id="g546"><text
           id="text554"
           style="font-variant:normal;font-weight:normal;font-size:24.95999908px;font-family:Calibri;-inkscape-font-specification:Calibri;writing-mode:lr-tb;fill:#000000;fill-opacity:1;fill-rule:nonzero;stroke:none"
           transform="matrix(1,0,0,-1,364.25,8.352)"><tspan
             id="tspan552"
             y="0"
             x="0 12.90432 29.427839 40.88448">POST</tspan></text>
</g></g><path
       id="path556"
       style="fill:#70ad47;fill-opacity:1;fill-rule:evenodd;stroke:none"
       d="m 465.24,301.8 h 178.32 v 92.4 H 465.24 Z" /><path
       id="path558"
       style="fill:none;stroke:#ffffff;stroke-width:0.95999998;stroke-linecap:butt;stroke-linejoin:miter;stroke-miterlimit:10;stroke-dasharray:none;stroke-opacity:1"
       d="m 465.24,301.8 h 178.32 v 92.4 H 465.24 Z" /><g
       id="g560"><g
         clip-path="url(#clipPath566)"
         id="g562"><text
           id="text570"
           style="font-variant:normal;font-weight:normal;font-size:32.06399918px;font-family:Calibri;-inkscape-font-specification:Calibri;writing-mode:lr-tb;fill:#ffffff;fill-opacity:1;fill-rule:nonzero;stroke:none"
           transform="matrix(1,0,0,-1,505.61,344.74)"><tspan
             id="tspan568"
             y="0"
             x="0 16.833599 33.731327 41.106049 48.352512 61.915585 69.290306 85.258179">policies</tspan></text>
</g></g><path
       id="path572"
       style="fill:#ffffff;fill-opacity:0.90196001;fill-rule:evenodd;stroke:none"
       d="m 500.88,291.6 h 160.56 v 30.72 H 500.88 Z" /><path
       id="path574"
       style="fill:none;stroke:#4472c4;stroke-width:0.95999998;stroke-linecap:butt;stroke-linejoin:miter;stroke-miterlimit:10;stroke-dasharray:none;stroke-opacity:1"
       d="m 500.88,291.6 h 160.56 v 30.72 H 500.88 Z" /><g
       id="g576"><g
         clip-path="url(#clipPath582)"
         id="g578"><text
           id="text586"
           style="font-variant:normal;font-weight:normal;font-size:24.95999908px;font-family:Calibri;-inkscape-font-specification:Calibri;writing-mode:lr-tb;fill:#000000;fill-opacity:1;fill-rule:nonzero;stroke:none"
           transform="matrix(1,0,0,-1,616.46,299.86)"><tspan
             id="tspan584"
             y="0"
             x="0 15.74976 27.930241">GET</tspan></text>
</g></g><path
       id="path588"
       style="fill:#70ad47;fill-opacity:1;fill-rule:evenodd;stroke:none"
       d="M 465.24,156.12 H 643.56 V 248.4 H 465.24 Z" /><path
       id="path590"
       style="fill:none;stroke:#ffffff;stroke-width:0.95999998;stroke-linecap:butt;stroke-linejoin:miter;stroke-miterlimit:10;stroke-dasharray:none;stroke-opacity:1"
       d="M 465.24,156.12 H 643.56 V 248.4 H 465.24 Z" /><g
       id="g592"><g
         clip-path="url(#clipPath598)"
         id="g594"><text
           id="text602"
           style="font-variant:normal;font-weight:normal;font-size:32.04000092px;font-family:Calibri;-inkscape-font-specification:Calibri;writing-mode:lr-tb;fill:#ffffff;fill-opacity:1;fill-rule:nonzero;stroke:none"
           transform="matrix(1,0,0,-1,516.17,198.96)"><tspan
             id="tspan600"
             y="0"
             x="0 16.820999 33.706081 41.075279 48.444481 61.997398">policy</tspan></text>
</g></g><path
       id="path604"
       style="fill:#ffffff;fill-opacity:0.90196001;fill-rule:evenodd;stroke:none"
       d="m 500.88,145.8 h 160.56 v 30.84 H 500.88 Z" /><path
       id="path606"
       style="fill:none;stroke:#4472c4;stroke-width:0.95999998;stroke-linecap:butt;stroke-linejoin:miter;stroke-miterlimit:10;stroke-dasharray:none;stroke-opacity:1"
       d="m 500.88,145.8 h 160.56 v 30.84 H 500.88 Z" /><g
       id="g608"><g
         clip-path="url(#clipPath614)"
         id="g610"><text
           id="text618"
           style="font-variant:normal;font-weight:normal;font-size:21px;font-family:Calibri;-inkscape-font-specification:Calibri;writing-mode:lr-tb;fill:#000000;fill-opacity:1;fill-rule:nonzero;stroke:none"
           transform="matrix(1,0,0,-1,510.65,155.26)"><tspan
             id="tspan616"
             y="0"
             x="0 13.251 23.393999 31.437 36.687 41.495998 52.353001 65.730003 73.773003 79.023003 83.958 96.873001 107.121 115.941 126.189 136.416">GET, PUT, DELETE</tspan></text>
</g></g><path
       id="path620"
       style="fill:#70ad47;fill-opacity:1;fill-rule:evenodd;stroke:none"
       d="m 465.24,10.32 h 178.32 v 92.4 H 465.24 Z" /><path
       id="path622"
       style="fill:none;stroke:#ffffff;stroke-width:0.95999998;stroke-linecap:butt;stroke-linejoin:miter;stroke-miterlimit:10;stroke-dasharray:none;stroke-opacity:1"
       d="m 465.24,10.32 h 178.32 v 92.4 H 465.24 Z" /><g
       id="g624"><g
         clip-path="url(#clipPath630)"
         id="g626"><text
           id="text634"
           style="font-variant:normal;font-weight:normal;font-size:32.04000092px;font-family:Calibri;-inkscape-font-specification:Calibri;writing-mode:lr-tb;fill:#ffffff;fill-opacity:1;fill-rule:nonzero;stroke:none"
           transform="matrix(1,0,0,-1,517.37,53.208)"><tspan
             id="tspan632"
             y="0"
             x="0 10.79748 26.753401 39.28104 56.102039 63.343079">result</tspan></text>
</g></g><path
       id="path636"
       style="fill:#ffffff;fill-opacity:0.90196001;fill-rule:evenodd;stroke:none"
       d="m 500.88,0.12006 h 160.56 v 30.72 H 500.88 Z" /><g
       id="g638"><g
         clip-path="url(#clipPath644)"
         id="g640"><path
           id="path646"
           style="fill:none;stroke:#4472c4;stroke-width:0.95999998;stroke-linecap:butt;stroke-linejoin:miter;stroke-miterlimit:10;stroke-dasharray:none;stroke-opacity:1"
           d="m 500.88,0.12006 h 160.56 v 30.72 H 500.88 Z" /></g></g><g
       id="g648"><g
         clip-path="url(#clipPath654)"
         id="g650"><text
           id="text658"
           style="font-variant:normal;font-weight:normal;font-size:24.95999908px;font-family:Calibri;-inkscape-font-specification:Calibri;writing-mode:lr-tb;fill:#000000;fill-opacity:1;fill-rule:nonzero;stroke:none"
           transform="matrix(1,0,0,-1,603.62,8.352)"><tspan
             id="tspan656"
             y="0"
             x="0 12.90432 29.427839 40.809601">POST</tspan></text>
</g></g><path
       id="path660"
       style="fill:#70ad47;fill-opacity:1;fill-rule:evenodd;stroke:none"
       d="m 859.56,418.8 h 70.2 v 42 h -70.2 z" /><path
       id="path662"
       style="fill:none;stroke:#ffffff;stroke-width:0.95999998;stroke-linecap:butt;stroke-linejoin:miter;stroke-miterlimit:10;stroke-dasharray:none;stroke-opacity:1"
       d="m 859.56,418.8 h 70.2 v 42 h -70.2 z" /><g
       id="g664"><g
         clip-path="url(#clipPath670)"
         id="g666"><text
           id="text674"
           style="font-variant:normal;font-weight:normal;font-size:15.96000004px;font-family:Calibri;-inkscape-font-specification:Calibri;writing-mode:lr-tb;fill:#ffffff;fill-opacity:1;fill-rule:nonzero;stroke:none"
           transform="matrix(1,0,0,-1,879.72,435.24)"><tspan
             id="tspan672"
             y="0"
             x="0 8.5066795 16.917601 22.200359">Core</tspan></text>
</g></g><path
       id="path676"
       style="fill:#4472c4;fill-opacity:1;fill-rule:evenodd;stroke:none"
       d="m 859.56,369.6 h 70.2 v 42.12 h -70.2 z" /><path
       id="path678"
       style="fill:none;stroke:#ffffff;stroke-width:0.95999998;stroke-linecap:butt;stroke-linejoin:miter;stroke-miterlimit:10;stroke-dasharray:none;stroke-opacity:1"
       d="m 859.56,369.6 h 70.2 v 42.12 h -70.2 z" /><g
       id="g680"><g
         clip-path="url(#clipPath686)"
         id="g682"><text
           id="text690"
           style="font-variant:normal;font-weight:normal;font-size:15.96000004px;font-family:Calibri;-inkscape-font-specification:Calibri;writing-mode:lr-tb;fill:#ffffff;fill-opacity:1;fill-rule:nonzero;stroke:none"
           transform="matrix(1,0,0,-1,878.28,386.11)"><tspan
             id="tspan688"
             y="0"
             x="0 7.7884798 14.74704 20.125561 25.28064">Extra</tspan></text>
</g></g><path
       id="path692"
       style="fill:#a5a5a5;fill-opacity:1;fill-rule:evenodd;stroke:none"
       d="m 859.56,320.52 h 70.2 v 42.12 h -70.2 z" /><path
       id="path694"
       style="fill:none;stroke:#ffffff;stroke-width:0.95999998;stroke-linecap:butt;stroke-linejoin:miter;stroke-miterlimit:10;stroke-dasharray:none;stroke-opacity:1"
       d="m 859.56,320.52 h 70.2 v 42.12 h -70.2 z" /><g
       id="g696"><g
         clip-path="url(#clipPath702)"
         id="g698"><text
           id="text706"
           style="font-variant:normal;font-weight:normal;font-size:15.96000004px;font-family:Calibri;-inkscape-font-specification:Calibri;writing-mode:lr-tb;fill:#ffffff;fill-opacity:1;fill-rule:nonzero;stroke:none"
           transform="matrix(1,0,0,-1,865.44,336.98)"><tspan
             id="tspan704"
             y="0"
             x="0 10.31016 18.721081">Not</tspan></text>
</g></g><g
       id="g708"><g
         clip-path="url(#clipPath714)"
         id="g710"><text
           id="text718"
           style="font-variant:normal;font-weight:normal;font-size:15.96000004px;font-family:Calibri;-inkscape-font-specification:Calibri;writing-mode:lr-tb;fill:#ffffff;fill-opacity:1;fill-rule:nonzero;stroke:none"
           transform="matrix(1,0,0,-1,893.16,336.98)"><tspan
             id="tspan716"
             y="0"
             x="0 8.3789997 14.61936 22.56744">used</tspan></text>
</g></g><g
       id="g720"><g
         clip-path="url(#clipPath726)"
         id="g722"><text
           id="text730"
           style="font-variant:normal;font-weight:normal;font-size:18px;font-family:Calibri;-inkscape-font-specification:Calibri;writing-mode:lr-tb;fill:#000000;fill-opacity:1;fill-rule:nonzero;stroke:none"
           transform="matrix(1,0,0,-1,866.88,493.01)"><tspan
             id="tspan728"
             y="0"
             x="0 7.5599999 16.524 25.002001 33.966 43.416 52.902">Legend:</tspan></text>
</g></g></g></svg>