<?xml version="1.0" encoding="UTF-8" standalone="no"?>
<svg
   xmlns:dc="http://purl.org/dc/elements/1.1/"
   xmlns:cc="http://creativecommons.org/ns#"
   xmlns:rdf="http://www.w3.org/1999/02/22-rdf-syntax-ns#"
   xmlns:svg="http://www.w3.org/2000/svg"
   xmlns="http://www.w3.org/2000/svg"
   viewBox="0 0 1280 720"
   height="720"
   width="1280"
   xml:space="preserve"
   id="svg6357"
   version="1.1"><metadata
     id="metadata6363"><rdf:RDF><cc:Work
         rdf:about=""><dc:format>image/svg+xml</dc:format><dc:type
           rdf:resource="http://purl.org/dc/dcmitype/StillImage" /><dc:title></dc:title></cc:Work></rdf:RDF></metadata><defs
     id="defs6361"><clipPath
       id="clipPath6373"
       clipPathUnits="userSpaceOnUse"><path
         style="clip-rule:evenodd"
         id="path6371"
         d="M 0,1.2207e-4 H 960 V 540.00012 H 0 Z" /></clipPath><clipPath
       id="clipPath6421"
       clipPathUnits="userSpaceOnUse"><path
         style="clip-rule:evenodd"
         id="path6419"
         d="M 1.4305e-5,0 H 960.00001 V 540 H 1.4305e-5 Z" /></clipPath><clipPath
       id="clipPath6441"
       clipPathUnits="userSpaceOnUse"><path
         style="clip-rule:evenodd"
         id="path6439"
         d="M 1.4305e-5,0 H 960.00001 V 540 H 1.4305e-5 Z" /></clipPath><clipPath
       id="clipPath6457"
       clipPathUnits="userSpaceOnUse"><path
         style="clip-rule:evenodd"
         id="path6455"
         d="M 1.4305e-5,0 H 960.00001 V 540 H 1.4305e-5 Z" /></clipPath><clipPath
       id="clipPath6473"
       clipPathUnits="userSpaceOnUse"><path
         style="clip-rule:evenodd"
         id="path6471"
         d="M 1.4305e-5,0 H 960.00001 V 540 H 1.4305e-5 Z" /></clipPath><clipPath
       id="clipPath6489"
       clipPathUnits="userSpaceOnUse"><path
         style="clip-rule:evenodd"
         id="path6487"
         d="M 1.4305e-5,0 H 960.00001 V 540 H 1.4305e-5 Z" /></clipPath><clipPath
       id="clipPath6505"
       clipPathUnits="userSpaceOnUse"><path
         style="clip-rule:evenodd"
         id="path6503"
         d="M 1.4305e-5,0 H 960.00001 V 540 H 1.4305e-5 Z" /></clipPath><clipPath
       id="clipPath6521"
       clipPathUnits="userSpaceOnUse"><path
         style="clip-rule:evenodd"
         id="path6519"
         d="M 1.4305e-5,0 H 960.00001 V 540 H 1.4305e-5 Z" /></clipPath><clipPath
       id="clipPath6537"
       clipPathUnits="userSpaceOnUse"><path
         style="clip-rule:evenodd"
         id="path6535"
         d="M 1.4305e-5,0 H 960.00001 V 540 H 1.4305e-5 Z" /></clipPath><clipPath
       id="clipPath6553"
       clipPathUnits="userSpaceOnUse"><path
         style="clip-rule:evenodd"
         id="path6551"
         d="M 1.4305e-5,0 H 960.00001 V 540 H 1.4305e-5 Z" /></clipPath><clipPath
       id="clipPath6569"
       clipPathUnits="userSpaceOnUse"><path
         style="clip-rule:evenodd"
         id="path6567"
         d="M 1.4305e-5,0 H 960.00001 V 540 H 1.4305e-5 Z" /></clipPath><clipPath
       id="clipPath6585"
       clipPathUnits="userSpaceOnUse"><path
         style="clip-rule:evenodd"
         id="path6583"
         d="M 1.4305e-5,0 H 960.00001 V 540 H 1.4305e-5 Z" /></clipPath><clipPath
       id="clipPath6601"
       clipPathUnits="userSpaceOnUse"><path
         style="clip-rule:evenodd"
         id="path6599"
         d="M 1.4305e-5,0 H 960.00001 V 540 H 1.4305e-5 Z" /></clipPath><clipPath
       id="clipPath6617"
       clipPathUnits="userSpaceOnUse"><path
         style="clip-rule:evenodd"
         id="path6615"
         d="M 1.4305e-5,0 H 960.00001 V 540 H 1.4305e-5 Z" /></clipPath><clipPath
       id="clipPath6633"
       clipPathUnits="userSpaceOnUse"><path
         style="clip-rule:evenodd"
         id="path6631"
         d="M 1.4305e-5,0 H 960.00001 V 540 H 1.4305e-5 Z" /></clipPath><clipPath
       id="clipPath6649"
       clipPathUnits="userSpaceOnUse"><path
         style="clip-rule:evenodd"
         id="path6647"
         d="M 1.4305e-5,0 H 960.00001 V 540 H 1.4305e-5 Z" /></clipPath><clipPath
       id="clipPath6665"
       clipPathUnits="userSpaceOnUse"><path
         style="clip-rule:evenodd"
         id="path6663"
         d="M 1.4305e-5,0 H 960.00001 V 540 H 1.4305e-5 Z" /></clipPath><clipPath
       id="clipPath6681"
       clipPathUnits="userSpaceOnUse"><path
         style="clip-rule:evenodd"
         id="path6679"
         d="M 1.4305e-5,0 H 960.00001 V 540 H 1.4305e-5 Z" /></clipPath><clipPath
       id="clipPath6697"
       clipPathUnits="userSpaceOnUse"><path
         style="clip-rule:evenodd"
         id="path6695"
         d="M 1.4305e-5,0 H 960.00001 V 540 H 1.4305e-5 Z" /></clipPath><clipPath
       id="clipPath6713"
       clipPathUnits="userSpaceOnUse"><path
         style="clip-rule:evenodd"
         id="path6711"
         d="M 1.4305e-5,0 H 960.00001 V 540 H 1.4305e-5 Z" /></clipPath><clipPath
       id="clipPath6729"
       clipPathUnits="userSpaceOnUse"><path
         style="clip-rule:evenodd"
         id="path6727"
         d="M 1.4305e-5,0 H 960.00001 V 540 H 1.4305e-5 Z" /></clipPath><clipPath
       id="clipPath6745"
       clipPathUnits="userSpaceOnUse"><path
         style="clip-rule:evenodd"
         id="path6743"
         d="M 1.4305e-5,0 H 960.00001 V 540 H 1.4305e-5 Z" /></clipPath><clipPath
       id="clipPath6761"
       clipPathUnits="userSpaceOnUse"><path
         style="clip-rule:evenodd"
         id="path6759"
         d="M 1.4305e-5,0 H 960.00001 V 540 H 1.4305e-5 Z" /></clipPath><clipPath
       id="clipPath6777"
       clipPathUnits="userSpaceOnUse"><path
         style="clip-rule:evenodd"
         id="path6775"
         d="M 1.4305e-5,0 H 960.00001 V 540 H 1.4305e-5 Z" /></clipPath><clipPath
       id="clipPath6793"
       clipPathUnits="userSpaceOnUse"><path
         style="clip-rule:evenodd"
         id="path6791"
         d="M 1.4305e-5,0 H 960.00001 V 540 H 1.4305e-5 Z" /></clipPath><clipPath
       id="clipPath6809"
       clipPathUnits="userSpaceOnUse"><path
         style="clip-rule:evenodd"
         id="path6807"
         d="M 1.4305e-5,0 H 960.00001 V 540 H 1.4305e-5 Z" /></clipPath><clipPath
       id="clipPath6825"
       clipPathUnits="userSpaceOnUse"><path
         style="clip-rule:evenodd"
         id="path6823"
         d="M 1.4305e-5,0 H 960.00001 V 540 H 1.4305e-5 Z" /></clipPath><clipPath
       id="clipPath6841"
       clipPathUnits="userSpaceOnUse"><path
         style="clip-rule:evenodd"
         id="path6839"
         d="M 1.4305e-5,0 H 960.00001 V 540 H 1.4305e-5 Z" /></clipPath><clipPath
       id="clipPath6857"
       clipPathUnits="userSpaceOnUse"><path
         style="clip-rule:evenodd"
         id="path6855"
         d="M 1.4305e-5,0 H 960.00001 V 540 H 1.4305e-5 Z" /></clipPath><clipPath
       id="clipPath6873"
       clipPathUnits="userSpaceOnUse"><path
         style="clip-rule:evenodd"
         id="path6871"
         d="M 1.4305e-5,0 H 960.00001 V 540 H 1.4305e-5 Z" /></clipPath><clipPath
       id="clipPath6889"
       clipPathUnits="userSpaceOnUse"><path
         style="clip-rule:evenodd"
         id="path6887"
         d="M 1.4305e-5,0 H 960.00001 V 540 H 1.4305e-5 Z" /></clipPath><clipPath
       id="clipPath6905"
       clipPathUnits="userSpaceOnUse"><path
         style="clip-rule:evenodd"
         id="path6903"
         d="M 1.4305e-5,0 H 960.00001 V 540 H 1.4305e-5 Z" /></clipPath><clipPath
       id="clipPath6921"
       clipPathUnits="userSpaceOnUse"><path
         style="clip-rule:evenodd"
         id="path6919"
         d="M 1.4305e-5,0 H 960.00001 V 540 H 1.4305e-5 Z" /></clipPath><clipPath
       id="clipPath6937"
       clipPathUnits="userSpaceOnUse"><path
         style="clip-rule:evenodd"
         id="path6935"
         d="M 1.4305e-5,0 H 960.00001 V 540 H 1.4305e-5 Z" /></clipPath><clipPath
       id="clipPath6953"
       clipPathUnits="userSpaceOnUse"><path
         style="clip-rule:evenodd"
         id="path6951"
         d="M 1.4305e-5,0 H 960.00001 V 540 H 1.4305e-5 Z" /></clipPath><clipPath
       id="clipPath6969"
       clipPathUnits="userSpaceOnUse"><path
         style="clip-rule:evenodd"
         id="path6967"
         d="M 1.4305e-5,0 H 960.00001 V 540 H 1.4305e-5 Z" /></clipPath><clipPath
       id="clipPath6985"
       clipPathUnits="userSpaceOnUse"><path
         style="clip-rule:evenodd"
         id="path6983"
         d="M 1.4305e-5,0 H 960.00001 V 540 H 1.4305e-5 Z" /></clipPath><clipPath
       id="clipPath7001"
       clipPathUnits="userSpaceOnUse"><path
         style="clip-rule:evenodd"
         id="path6999"
         d="M 1.4305e-5,0 H 960.00001 V 540 H 1.4305e-5 Z" /></clipPath><clipPath
       id="clipPath7017"
       clipPathUnits="userSpaceOnUse"><path
         style="clip-rule:evenodd"
         id="path7015"
         d="M 1.4305e-5,0 H 960.00001 V 540 H 1.4305e-5 Z" /></clipPath><clipPath
       id="clipPath7029"
       clipPathUnits="userSpaceOnUse"><path
         style="clip-rule:evenodd"
         id="path7027"
         d="M 1.4305e-5,0 H 960.00001 V 540 H 1.4305e-5 Z" /></clipPath><clipPath
       id="clipPath7041"
       clipPathUnits="userSpaceOnUse"><path
         style="clip-rule:evenodd"
         id="path7039"
         d="M 1.4305e-5,0 H 960.00001 V 540 H 1.4305e-5 Z" /></clipPath></defs><g
     transform="matrix(1.3333333,0,0,-1.3333333,0,720)"
     id="g6365"><g
       id="g6367"><g
         clip-path="url(#clipPath6373)"
         id="g6369"><path
           id="path6375"
           style="fill:#ffffff;fill-opacity:1;fill-rule:evenodd;stroke:none"
           d="M 0,6.1035e-5 H 960 V 540.00006 H 0 Z" /></g></g><path
       id="path6377"
       style="fill:none;stroke:#3d67b1;stroke-width:1;stroke-linecap:butt;stroke-linejoin:miter;stroke-miterlimit:10;stroke-dasharray:none;stroke-opacity:1"
       d="M 674.9,283.7 V 269.81 H 831.66 V 260.4" /><path
       id="path6379"
       style="fill:none;stroke:#3d67b1;stroke-width:1;stroke-linecap:butt;stroke-linejoin:miter;stroke-miterlimit:10;stroke-dasharray:none;stroke-opacity:1"
       d="m 674.9,283.7 v -13.89 h 52.25 v -9.41" /><path
       id="path6381"
       style="fill:none;stroke:#3d67b1;stroke-width:1;stroke-linecap:butt;stroke-linejoin:miter;stroke-miterlimit:10;stroke-dasharray:none;stroke-opacity:1"
       d="M 674.95,283.7 V 269.81 H 622.7 v -9.41" /><path
       id="path6383"
       style="fill:none;stroke:#3d67b1;stroke-width:1;stroke-linecap:butt;stroke-linejoin:miter;stroke-miterlimit:10;stroke-dasharray:none;stroke-opacity:1"
       d="M 675.06,283.7 V 269.81 H 518.3 v -9.41" /><path
       id="path6385"
       style="fill:none;stroke:#3d67b1;stroke-width:1;stroke-linecap:butt;stroke-linejoin:miter;stroke-miterlimit:10;stroke-dasharray:none;stroke-opacity:1"
       d="M 674.9,347.5 V 324.2" /><path
       id="path6387"
       style="fill:none;stroke:#34599c;stroke-width:1;stroke-linecap:butt;stroke-linejoin:miter;stroke-miterlimit:10;stroke-dasharray:none;stroke-opacity:1"
       d="M 452.9,411.1 V 397.21 H 674.98 V 387.8" /><path
       id="path6389"
       style="fill:none;stroke:#3d67b1;stroke-width:1;stroke-linecap:butt;stroke-linejoin:miter;stroke-miterlimit:10;stroke-dasharray:none;stroke-opacity:1"
       d="M 230.9,283.7 V 269.81 H 413.79 V 260.4" /><path
       id="path6391"
       style="fill:none;stroke:#3d67b1;stroke-width:1;stroke-linecap:butt;stroke-linejoin:miter;stroke-miterlimit:10;stroke-dasharray:none;stroke-opacity:1"
       d="m 230.9,283.7 v -13.89 h 78.38 v -9.41" /><path
       id="path6393"
       style="fill:none;stroke:#3d67b1;stroke-width:1;stroke-linecap:butt;stroke-linejoin:miter;stroke-miterlimit:10;stroke-dasharray:none;stroke-opacity:1"
       d="m 204.7,156.5 v -13.89 h 52.25 v -9.41" /><path
       id="path6395"
       style="fill:none;stroke:#3d67b1;stroke-width:1;stroke-linecap:butt;stroke-linejoin:miter;stroke-miterlimit:10;stroke-dasharray:none;stroke-opacity:1"
       d="M 204.75,156.5 V 142.61 H 152.5 v -9.41" /><path
       id="path6397"
       style="fill:none;stroke:#3d67b1;stroke-width:1;stroke-linecap:butt;stroke-linejoin:miter;stroke-miterlimit:10;stroke-dasharray:none;stroke-opacity:1"
       d="M 204.7,220.1 V 196.8" /><path
       id="path6399"
       style="fill:none;stroke:#3d67b1;stroke-width:1;stroke-linecap:butt;stroke-linejoin:miter;stroke-miterlimit:10;stroke-dasharray:none;stroke-opacity:1"
       d="M 230.83,283.7 V 269.81 H 204.7 v -9.41" /><path
       id="path6401"
       style="fill:none;stroke:#3d67b1;stroke-width:1;stroke-linecap:butt;stroke-linejoin:miter;stroke-miterlimit:10;stroke-dasharray:none;stroke-opacity:1"
       d="M 47.9,156.5 V 133.2" /><path
       id="path6403"
       style="fill:none;stroke:#3d67b1;stroke-width:1;stroke-linecap:butt;stroke-linejoin:miter;stroke-miterlimit:10;stroke-dasharray:none;stroke-opacity:1"
       d="M 47.9,220.1 V 196.8" /><path
       id="path6405"
       style="fill:none;stroke:#3d67b1;stroke-width:1;stroke-linecap:butt;stroke-linejoin:miter;stroke-miterlimit:10;stroke-dasharray:none;stroke-opacity:1"
       d="M 230.79,283.7 V 269.81 H 47.9 v -9.41" /><path
       id="path6407"
       style="fill:none;stroke:#3d67b1;stroke-width:1;stroke-linecap:butt;stroke-linejoin:miter;stroke-miterlimit:10;stroke-dasharray:none;stroke-opacity:1"
       d="M 230.9,347.5 V 324.2" /><path
       id="path6409"
       style="fill:none;stroke:#34599c;stroke-width:1;stroke-linecap:butt;stroke-linejoin:miter;stroke-miterlimit:10;stroke-dasharray:none;stroke-opacity:1"
       d="M 452.98,411.1 V 397.21 H 230.9 v -9.41" /><path
       id="path6411"
       style="fill:#a5a5a5;fill-opacity:1;fill-rule:evenodd;stroke:none"
       d="m 413.9,411.1 h 78 v 40.2 h -78 z" /><path
       id="path6413"
       style="fill:none;stroke:#ffffff;stroke-width:1;stroke-linecap:butt;stroke-linejoin:miter;stroke-miterlimit:10;stroke-dasharray:none;stroke-opacity:1"
       d="m 413.9,411.1 h 78 v 40.2 h -78 z" /><g
       id="g6415"><g
         clip-path="url(#clipPath6421)"
         id="g6417"><text
           id="text6425"
           style="font-variant:normal;font-weight:normal;font-size:14px;font-family:Calibri;-inkscape-font-specification:Calibri;writing-mode:lr-tb;fill:#ffffff;fill-opacity:1;fill-rule:nonzero;stroke:none"
           transform="matrix(1,0,0,-1,440.85,429.88)"><tspan
             id="tspan6423"
             y="0"
             x="0 4.6059999 11.984 19.389999">root</tspan></text>
</g></g><path
       id="path6427"
       style="fill:#ffffff;fill-opacity:0.90196001;fill-rule:evenodd;stroke:none"
       d="m 429.5,406.5 h 70.2 v 13.6 h -70.2 z" /><path
       id="path6429"
       style="fill:none;stroke:#4472c4;stroke-width:1;stroke-linecap:butt;stroke-linejoin:miter;stroke-miterlimit:10;stroke-dasharray:none;stroke-opacity:1"
       d="m 429.5,406.5 h 70.2 v 13.6 h -70.2 z" /><path
       id="path6431"
       style="fill:#70ad47;fill-opacity:1;fill-rule:evenodd;stroke:none"
       d="m 191.9,347.5 h 77.8 v 40.2 h -77.8 z" /><path
       id="path6433"
       style="fill:none;stroke:#ffffff;stroke-width:1;stroke-linecap:butt;stroke-linejoin:miter;stroke-miterlimit:10;stroke-dasharray:none;stroke-opacity:1"
       d="m 191.9,347.5 h 77.8 v 40.2 h -77.8 z" /><g
       id="g6435"><g
         clip-path="url(#clipPath6441)"
         id="g6437"><text
           id="text6445"
           style="font-variant:normal;font-weight:normal;font-size:14px;font-family:Calibri;-inkscape-font-specification:Calibri;writing-mode:lr-tb;fill:#ffffff;fill-opacity:1;fill-rule:nonzero;stroke:none"
           transform="matrix(1,0,0,-1,217.13,366.2)"><tspan
             id="tspan6443"
             y="0"
             x="0 7.3920002 11.396 15.19 21.784">nffgs</tspan></text>
</g></g><path
       id="path6447"
       style="fill:#ffffff;fill-opacity:0.90196001;fill-rule:evenodd;stroke:none"
       d="m 207.5,342.9 h 70 v 13.4 h -70 z" /><path
       id="path6449"
       style="fill:none;stroke:#4472c4;stroke-width:1;stroke-linecap:butt;stroke-linejoin:miter;stroke-miterlimit:10;stroke-dasharray:none;stroke-opacity:1"
       d="m 207.5,342.9 h 70 v 13.4 h -70 z" /><g
       id="g6451"><g
         clip-path="url(#clipPath6457)"
         id="g6453"><text
           id="text6461"
           style="font-variant:normal;font-weight:normal;font-size:11px;font-family:Calibri;-inkscape-font-specification:Calibri;writing-mode:lr-tb;fill:#000000;fill-opacity:1;fill-rule:nonzero;stroke:none"
           transform="matrix(1,0,0,-1,229.2,346.52)"><tspan
             id="tspan6459"
             y="0"
             x="0 6.9850001 12.353 17.775999 20.57 22.968 28.566999 35.771999 40.777">GET, POST</tspan></text>
</g></g><path
       id="path6463"
       style="fill:#70ad47;fill-opacity:1;fill-rule:evenodd;stroke:none"
       d="m 191.9,283.7 h 77.8 v 40.4 h -77.8 z" /><path
       id="path6465"
       style="fill:none;stroke:#ffffff;stroke-width:1;stroke-linecap:butt;stroke-linejoin:miter;stroke-miterlimit:10;stroke-dasharray:none;stroke-opacity:1"
       d="m 191.9,283.7 h 77.8 v 40.4 h -77.8 z" /><g
       id="g6467"><g
         clip-path="url(#clipPath6473)"
         id="g6469"><text
           id="text6477"
           style="font-variant:normal;font-weight:normal;font-size:14px;font-family:Calibri;-inkscape-font-specification:Calibri;writing-mode:lr-tb;fill:#ffffff;fill-opacity:1;fill-rule:nonzero;stroke:none"
           transform="matrix(1,0,0,-1,219.73,302.55)"><tspan
             id="tspan6475"
             y="0"
             x="0 7.3920002 11.396 15.19">nffg</tspan></text>
</g></g><path
       id="path6479"
       style="fill:#ffffff;fill-opacity:0.90196001;fill-rule:evenodd;stroke:none"
       d="m 207.5,279.3 h 70 v 13.4 h -70 z" /><path
       id="path6481"
       style="fill:none;stroke:#4472c4;stroke-width:1;stroke-linecap:butt;stroke-linejoin:miter;stroke-miterlimit:10;stroke-dasharray:none;stroke-opacity:1"
       d="m 207.5,279.3 h 70 v 13.4 h -70 z" /><g
       id="g6483"><g
         clip-path="url(#clipPath6489)"
         id="g6485"><text
           id="text6493"
           style="font-variant:normal;font-weight:normal;font-size:11px;font-family:Calibri;-inkscape-font-specification:Calibri;writing-mode:lr-tb;fill:#000000;fill-opacity:1;fill-rule:nonzero;stroke:none"
           transform="matrix(1,0,0,-1,219.4,282.88)"><tspan
             id="tspan6491"
             y="0"
             x="0 6.9850001 12.353 17.775999 20.57 22.968 29.754999 35.123001 39.743 45.144001 50.534">GET, DELETE</tspan></text>
</g></g><path
       id="path6495"
       style="fill:#4472c4;fill-opacity:1;fill-rule:evenodd;stroke:none"
       d="m 8.9,220.1 h 78 v 40.4 h -78 z" /><path
       id="path6497"
       style="fill:none;stroke:#ffffff;stroke-width:1;stroke-linecap:butt;stroke-linejoin:miter;stroke-miterlimit:10;stroke-dasharray:none;stroke-opacity:1"
       d="m 8.9,220.1 h 78 v 40.4 h -78 z" /><g
       id="g6499"><g
         clip-path="url(#clipPath6505)"
         id="g6501"><text
           id="text6509"
           style="font-variant:normal;font-weight:normal;font-size:14px;font-family:Calibri;-inkscape-font-specification:Calibri;writing-mode:lr-tb;fill:#ffffff;fill-opacity:1;fill-rule:nonzero;stroke:none"
           transform="matrix(1,0,0,-1,30.4,238.9)"><tspan
             id="tspan6507"
             y="0"
             x="0 7.3920002 14.77 22.176001 29.148001">nodes</tspan></text>
</g></g><path
       id="path6511"
       style="fill:#ffffff;fill-opacity:0.90196001;fill-rule:evenodd;stroke:none"
       d="m 24.5,215.7 h 70.2 v 13.4 H 24.5 Z" /><path
       id="path6513"
       style="fill:none;stroke:#4472c4;stroke-width:1;stroke-linecap:butt;stroke-linejoin:miter;stroke-miterlimit:10;stroke-dasharray:none;stroke-opacity:1"
       d="m 24.5,215.7 h 70.2 v 13.4 H 24.5 Z" /><g
       id="g6515"><g
         clip-path="url(#clipPath6521)"
         id="g6517"><text
           id="text6525"
           style="font-variant:normal;font-weight:normal;font-size:11px;font-family:Calibri;-inkscape-font-specification:Calibri;writing-mode:lr-tb;fill:#000000;fill-opacity:1;fill-rule:nonzero;stroke:none"
           transform="matrix(1,0,0,-1,74.675,219.23)"><tspan
             id="tspan6523"
             y="0"
             x="0 6.9850001 12.353">GET</tspan></text>
</g></g><path
       id="path6527"
       style="fill:#4472c4;fill-opacity:1;fill-rule:evenodd;stroke:none"
       d="m 8.9,156.5 h 78 v 40.4 h -78 z" /><path
       id="path6529"
       style="fill:none;stroke:#ffffff;stroke-width:1;stroke-linecap:butt;stroke-linejoin:miter;stroke-miterlimit:10;stroke-dasharray:none;stroke-opacity:1"
       d="m 8.9,156.5 h 78 v 40.4 h -78 z" /><g
       id="g6531"><g
         clip-path="url(#clipPath6537)"
         id="g6533"><text
           id="text6541"
           style="font-variant:normal;font-weight:normal;font-size:14px;font-family:Calibri;-inkscape-font-specification:Calibri;writing-mode:lr-tb;fill:#ffffff;fill-opacity:1;fill-rule:nonzero;stroke:none"
           transform="matrix(1,0,0,-1,33.2,175.23)"><tspan
             id="tspan6539"
             y="0"
             x="0 7.3920002 14.77 22.176001">node</tspan></text>
</g></g><path
       id="path6543"
       style="fill:#ffffff;fill-opacity:0.90196001;fill-rule:evenodd;stroke:none"
       d="m 24.5,152.1 h 70.2 v 13.4 H 24.5 Z" /><path
       id="path6545"
       style="fill:none;stroke:#4472c4;stroke-width:1;stroke-linecap:butt;stroke-linejoin:miter;stroke-miterlimit:10;stroke-dasharray:none;stroke-opacity:1"
       d="m 24.5,152.1 h 70.2 v 13.4 H 24.5 Z" /><g
       id="g6547"><g
         clip-path="url(#clipPath6553)"
         id="g6549"><text
           id="text6557"
           style="font-variant:normal;font-weight:normal;font-size:11px;font-family:Calibri;-inkscape-font-specification:Calibri;writing-mode:lr-tb;fill:#000000;fill-opacity:1;fill-rule:nonzero;stroke:none"
           transform="matrix(1,0,0,-1,74.675,155.55)"><tspan
             id="tspan6555"
             y="0"
             x="0 6.9850001 12.353">GET</tspan></text>
</g></g><path
       id="path6559"
       style="fill:#4472c4;fill-opacity:1;fill-rule:evenodd;stroke:none"
       d="m 8.9,92.9 h 78 v 40.4 h -78 z" /><path
       id="path6561"
       style="fill:none;stroke:#ffffff;stroke-width:1;stroke-linecap:butt;stroke-linejoin:miter;stroke-miterlimit:10;stroke-dasharray:none;stroke-opacity:1"
       d="m 8.9,92.9 h 78 v 40.4 h -78 z" /><g
       id="g6563"><g
         clip-path="url(#clipPath6569)"
         id="g6565"><text
           id="text6573"
           style="font-variant:normal;font-weight:normal;font-size:14px;font-family:Calibri;-inkscape-font-specification:Calibri;writing-mode:lr-tb;fill:#ffffff;fill-opacity:1;fill-rule:nonzero;stroke:none"
           transform="matrix(1,0,0,-1,35,111.57)"><tspan
             id="tspan6571"
             y="0"
             x="0 3.22 6.4400001 13.79 20.006001">links</tspan></text>
</g></g><path
       id="path6575"
       style="fill:#ffffff;fill-opacity:0.90196001;fill-rule:evenodd;stroke:none"
       d="m 24.5,88.5 h 70.2 v 13.4 H 24.5 Z" /><path
       id="path6577"
       style="fill:none;stroke:#4472c4;stroke-width:1;stroke-linecap:butt;stroke-linejoin:miter;stroke-miterlimit:10;stroke-dasharray:none;stroke-opacity:1"
       d="m 24.5,88.5 h 70.2 v 13.4 H 24.5 Z" /><g
       id="g6579"><g
         clip-path="url(#clipPath6585)"
         id="g6581"><text
           id="text6589"
           style="font-variant:normal;font-weight:normal;font-size:11px;font-family:Calibri;-inkscape-font-specification:Calibri;writing-mode:lr-tb;fill:#000000;fill-opacity:1;fill-rule:nonzero;stroke:none"
           transform="matrix(1,0,0,-1,74.675,91.9)"><tspan
             id="tspan6587"
             y="0"
             x="0 6.9850001 12.353">GET</tspan></text>
</g></g><path
       id="path6591"
       style="fill:#4472c4;fill-opacity:1;fill-rule:evenodd;stroke:none"
       d="m 165.7,220.1 h 78 v 40.4 h -78 z" /><path
       id="path6593"
       style="fill:none;stroke:#ffffff;stroke-width:1;stroke-linecap:butt;stroke-linejoin:miter;stroke-miterlimit:10;stroke-dasharray:none;stroke-opacity:1"
       d="m 165.7,220.1 h 78 v 40.4 h -78 z" /><g
       id="g6595"><g
         clip-path="url(#clipPath6601)"
         id="g6597"><text
           id="text6605"
           style="font-variant:normal;font-weight:normal;font-size:14px;font-family:Calibri;-inkscape-font-specification:Calibri;writing-mode:lr-tb;fill:#ffffff;fill-opacity:1;fill-rule:nonzero;stroke:none"
           transform="matrix(1,0,0,-1,191.77,238.9)"><tspan
             id="tspan6603"
             y="0"
             x="0 3.22 6.4400001 13.79 20.048">links</tspan></text>
</g></g><path
       id="path6607"
       style="fill:#ffffff;fill-opacity:0.90196001;fill-rule:evenodd;stroke:none"
       d="m 181.3,215.7 h 70.2 v 13.4 h -70.2 z" /><path
       id="path6609"
       style="fill:none;stroke:#4472c4;stroke-width:1;stroke-linecap:butt;stroke-linejoin:miter;stroke-miterlimit:10;stroke-dasharray:none;stroke-opacity:1"
       d="m 181.3,215.7 h 70.2 v 13.4 h -70.2 z" /><g
       id="g6611"><g
         clip-path="url(#clipPath6617)"
         id="g6613"><text
           id="text6621"
           style="font-variant:normal;font-weight:normal;font-size:11px;font-family:Calibri;-inkscape-font-specification:Calibri;writing-mode:lr-tb;fill:#000000;fill-opacity:1;fill-rule:nonzero;stroke:none"
           transform="matrix(1,0,0,-1,231.48,219.23)"><tspan
             id="tspan6619"
             y="0"
             x="0 6.9850001 12.353">GET</tspan></text>
</g></g><path
       id="path6623"
       style="fill:#4472c4;fill-opacity:1;fill-rule:evenodd;stroke:none"
       d="m 165.7,156.5 h 78 v 40.4 h -78 z" /><path
       id="path6625"
       style="fill:none;stroke:#ffffff;stroke-width:1;stroke-linecap:butt;stroke-linejoin:miter;stroke-miterlimit:10;stroke-dasharray:none;stroke-opacity:1"
       d="m 165.7,156.5 h 78 v 40.4 h -78 z" /><g
       id="g6627"><g
         clip-path="url(#clipPath6633)"
         id="g6629"><text
           id="text6637"
           style="font-variant:normal;font-weight:normal;font-size:14px;font-family:Calibri;-inkscape-font-specification:Calibri;writing-mode:lr-tb;fill:#ffffff;fill-opacity:1;fill-rule:nonzero;stroke:none"
           transform="matrix(1,0,0,-1,194.4,175.23)"><tspan
             id="tspan6635"
             y="0"
             x="0 3.22 6.4400001 13.79">link</tspan></text>
</g></g><path
       id="path6639"
       style="fill:#ffffff;fill-opacity:0.90196001;fill-rule:evenodd;stroke:none"
       d="m 181.3,152.1 h 70.2 v 13.4 h -70.2 z" /><path
       id="path6641"
       style="fill:none;stroke:#4472c4;stroke-width:1;stroke-linecap:butt;stroke-linejoin:miter;stroke-miterlimit:10;stroke-dasharray:none;stroke-opacity:1"
       d="m 181.3,152.1 h 70.2 v 13.4 h -70.2 z" /><g
       id="g6643"><g
         clip-path="url(#clipPath6649)"
         id="g6645"><text
           id="text6653"
           style="font-variant:normal;font-weight:normal;font-size:11px;font-family:Calibri;-inkscape-font-specification:Calibri;writing-mode:lr-tb;fill:#000000;fill-opacity:1;fill-rule:nonzero;stroke:none"
           transform="matrix(1,0,0,-1,231.48,155.55)"><tspan
             id="tspan6651"
             y="0"
             x="0 6.9850001 12.353">GET</tspan></text>
</g></g><path
       id="path6655"
       style="fill:#4472c4;fill-opacity:1;fill-rule:evenodd;stroke:none"
       d="m 113.5,92.9 h 77.8 v 40.4 h -77.8 z" /><path
       id="path6657"
       style="fill:none;stroke:#ffffff;stroke-width:1;stroke-linecap:butt;stroke-linejoin:miter;stroke-miterlimit:10;stroke-dasharray:none;stroke-opacity:1"
       d="m 113.5,92.9 h 77.8 v 40.4 h -77.8 z" /><g
       id="g6659"><g
         clip-path="url(#clipPath6665)"
         id="g6661"><text
           id="text6669"
           style="font-variant:normal;font-weight:normal;font-size:14px;font-family:Calibri;-inkscape-font-specification:Calibri;writing-mode:lr-tb;fill:#ffffff;fill-opacity:1;fill-rule:nonzero;stroke:none"
           transform="matrix(1,0,0,-1,144.33,111.57)"><tspan
             id="tspan6667"
             y="0"
             x="0 5.4039998 10.01">src</tspan></text>
</g></g><path
       id="path6671"
       style="fill:#ffffff;fill-opacity:0.90196001;fill-rule:evenodd;stroke:none"
       d="m 129.1,88.5 h 70 v 13.4 h -70 z" /><path
       id="path6673"
       style="fill:none;stroke:#4472c4;stroke-width:1;stroke-linecap:butt;stroke-linejoin:miter;stroke-miterlimit:10;stroke-dasharray:none;stroke-opacity:1"
       d="m 129.1,88.5 h 70 v 13.4 h -70 z" /><g
       id="g6675"><g
         clip-path="url(#clipPath6681)"
         id="g6677"><text
           id="text6685"
           style="font-variant:normal;font-weight:normal;font-size:11px;font-family:Calibri;-inkscape-font-specification:Calibri;writing-mode:lr-tb;fill:#000000;fill-opacity:1;fill-rule:nonzero;stroke:none"
           transform="matrix(1,0,0,-1,179.2,91.9)"><tspan
             id="tspan6683"
             y="0"
             x="0 6.9850001 12.353">GET</tspan></text>
</g></g><path
       id="path6687"
       style="fill:#4472c4;fill-opacity:1;fill-rule:evenodd;stroke:none"
       d="m 218.1,92.9 h 77.8 v 40.4 h -77.8 z" /><path
       id="path6689"
       style="fill:none;stroke:#ffffff;stroke-width:1;stroke-linecap:butt;stroke-linejoin:miter;stroke-miterlimit:10;stroke-dasharray:none;stroke-opacity:1"
       d="m 218.1,92.9 h 77.8 v 40.4 h -77.8 z" /><g
       id="g6691"><g
         clip-path="url(#clipPath6697)"
         id="g6693"><text
           id="text6701"
           style="font-variant:normal;font-weight:normal;font-size:14px;font-family:Calibri;-inkscape-font-specification:Calibri;writing-mode:lr-tb;fill:#ffffff;fill-opacity:1;fill-rule:nonzero;stroke:none"
           transform="matrix(1,0,0,-1,248.25,111.57)"><tspan
             id="tspan6699"
             y="0"
             x="0 7.3920002 12.586">dst</tspan></text>
</g></g><path
       id="path6703"
       style="fill:#ffffff;fill-opacity:0.90196001;fill-rule:evenodd;stroke:none"
       d="m 233.5,88.5 h 70.2 v 13.4 h -70.2 z" /><path
       id="path6705"
       style="fill:none;stroke:#4472c4;stroke-width:1;stroke-linecap:butt;stroke-linejoin:miter;stroke-miterlimit:10;stroke-dasharray:none;stroke-opacity:1"
       d="m 233.5,88.5 h 70.2 v 13.4 h -70.2 z" /><g
       id="g6707"><g
         clip-path="url(#clipPath6713)"
         id="g6709"><text
           id="text6717"
           style="font-variant:normal;font-weight:normal;font-size:11px;font-family:Calibri;-inkscape-font-specification:Calibri;writing-mode:lr-tb;fill:#000000;fill-opacity:1;fill-rule:nonzero;stroke:none"
           transform="matrix(1,0,0,-1,283.75,91.9)"><tspan
             id="tspan6715"
             y="0"
             x="0 6.9850001 12.353">GET</tspan></text>
</g></g><path
       id="path6719"
       style="fill:#70ad47;fill-opacity:1;fill-rule:evenodd;stroke:none"
       d="m 270.3,220.1 h 77.8 v 40.4 h -77.8 z" /><path
       id="path6721"
       style="fill:none;stroke:#ffffff;stroke-width:1;stroke-linecap:butt;stroke-linejoin:miter;stroke-miterlimit:10;stroke-dasharray:none;stroke-opacity:1"
       d="m 270.3,220.1 h 77.8 v 40.4 h -77.8 z" /><g
       id="g6723"><g
         clip-path="url(#clipPath6729)"
         id="g6725"><text
           id="text6733"
           style="font-variant:normal;font-weight:normal;font-size:14px;font-family:Calibri;-inkscape-font-specification:Calibri;writing-mode:lr-tb;fill:#ffffff;fill-opacity:1;fill-rule:nonzero;stroke:none"
           transform="matrix(1,0,0,-1,287.73,238.9)"><tspan
             id="tspan6731"
             y="0"
             x="0 7.3920002 14.77 17.99 21.209999 27.174 30.393999 37.366001">policies</tspan></text>
</g></g><path
       id="path6735"
       style="fill:#ffffff;fill-opacity:0.90196001;fill-rule:evenodd;stroke:none"
       d="m 285.9,215.7 h 70 v 13.4 h -70 z" /><path
       id="path6737"
       style="fill:none;stroke:#4472c4;stroke-width:1;stroke-linecap:butt;stroke-linejoin:miter;stroke-miterlimit:10;stroke-dasharray:none;stroke-opacity:1"
       d="m 285.9,215.7 h 70 v 13.4 h -70 z" /><g
       id="g6739"><g
         clip-path="url(#clipPath6745)"
         id="g6741"><text
           id="text6749"
           style="font-variant:normal;font-weight:normal;font-size:11px;font-family:Calibri;-inkscape-font-specification:Calibri;writing-mode:lr-tb;fill:#000000;fill-opacity:1;fill-rule:nonzero;stroke:none"
           transform="matrix(1,0,0,-1,307.6,219.23)"><tspan
             id="tspan6747"
             y="0"
             x="0 6.9850001 12.353 17.775999 20.57 22.968 28.566999 35.771999 40.777">GET, POST</tspan></text>
</g></g><path
       id="path6751"
       style="fill:#70ad47;fill-opacity:1;fill-rule:evenodd;stroke:none"
       d="m 374.7,220.1 h 78 v 40.4 h -78 z" /><path
       id="path6753"
       style="fill:none;stroke:#ffffff;stroke-width:1;stroke-linecap:butt;stroke-linejoin:miter;stroke-miterlimit:10;stroke-dasharray:none;stroke-opacity:1"
       d="m 374.7,220.1 h 78 v 40.4 h -78 z" /><g
       id="g6755"><g
         clip-path="url(#clipPath6761)"
         id="g6757"><text
           id="text6765"
           style="font-variant:normal;font-weight:normal;font-size:14px;font-family:Calibri;-inkscape-font-specification:Calibri;writing-mode:lr-tb;fill:#ffffff;fill-opacity:1;fill-rule:nonzero;stroke:none"
           transform="matrix(1,0,0,-1,376.25,238.9)"><tspan
             id="tspan6763"
             y="0"
             x="0 7.3779998 14.784 18.004 21.224001 28.573999 35.546001 42.574001 47.18 54.152 59.584 66.975998 70.195999">online_result</tspan></text>
</g></g><path
       id="path6767"
       style="fill:#ffffff;fill-opacity:0.90196001;fill-rule:evenodd;stroke:none"
       d="m 390.3,215.7 h 70.2 v 13.4 h -70.2 z" /><path
       id="path6769"
       style="fill:none;stroke:#4472c4;stroke-width:1;stroke-linecap:butt;stroke-linejoin:miter;stroke-miterlimit:10;stroke-dasharray:none;stroke-opacity:1"
       d="m 390.3,215.7 h 70.2 v 13.4 h -70.2 z" /><g
       id="g6771"><g
         clip-path="url(#clipPath6777)"
         id="g6773"><text
           id="text6781"
           style="font-variant:normal;font-weight:normal;font-size:11px;font-family:Calibri;-inkscape-font-specification:Calibri;writing-mode:lr-tb;fill:#000000;fill-opacity:1;fill-rule:nonzero;stroke:none"
           transform="matrix(1,0,0,-1,435.13,219.23)"><tspan
             id="tspan6779"
             y="0"
             x="0 5.599 12.804 17.809">POST</tspan></text>
</g></g><path
       id="path6783"
       style="fill:#70ad47;fill-opacity:1;fill-rule:evenodd;stroke:none"
       d="m 636.1,347.5 h 77.8 v 40.2 h -77.8 z" /><path
       id="path6785"
       style="fill:none;stroke:#ffffff;stroke-width:1;stroke-linecap:butt;stroke-linejoin:miter;stroke-miterlimit:10;stroke-dasharray:none;stroke-opacity:1"
       d="m 636.1,347.5 h 77.8 v 40.2 h -77.8 z" /><g
       id="g6787"><g
         clip-path="url(#clipPath6793)"
         id="g6789"><text
           id="text6797"
           style="font-variant:normal;font-weight:normal;font-size:14px;font-family:Calibri;-inkscape-font-specification:Calibri;writing-mode:lr-tb;fill:#ffffff;fill-opacity:1;fill-rule:nonzero;stroke:none"
           transform="matrix(1,0,0,-1,653.58,366.2)"><tspan
             id="tspan6795"
             y="0"
             x="0 7.3920002 14.77 17.99 21.209999 27.174 30.393999 37.366001">policies</tspan></text>
</g></g><path
       id="path6799"
       style="fill:#ffffff;fill-opacity:0.90196001;fill-rule:evenodd;stroke:none"
       d="m 651.7,342.9 h 70 v 13.4 h -70 z" /><path
       id="path6801"
       style="fill:none;stroke:#4472c4;stroke-width:1;stroke-linecap:butt;stroke-linejoin:miter;stroke-miterlimit:10;stroke-dasharray:none;stroke-opacity:1"
       d="m 651.7,342.9 h 70 v 13.4 h -70 z" /><g
       id="g6803"><g
         clip-path="url(#clipPath6809)"
         id="g6805"><text
           id="text6813"
           style="font-variant:normal;font-weight:normal;font-size:11px;font-family:Calibri;-inkscape-font-specification:Calibri;writing-mode:lr-tb;fill:#000000;fill-opacity:1;fill-rule:nonzero;stroke:none"
           transform="matrix(1,0,0,-1,701.85,346.52)"><tspan
             id="tspan6811"
             y="0"
             x="0 6.9850001 12.353">GET</tspan></text>
</g></g><path
       id="path6815"
       style="fill:#70ad47;fill-opacity:1;fill-rule:evenodd;stroke:none"
       d="m 636.1,283.7 h 77.8 v 40.4 h -77.8 z" /><path
       id="path6817"
       style="fill:none;stroke:#ffffff;stroke-width:1;stroke-linecap:butt;stroke-linejoin:miter;stroke-miterlimit:10;stroke-dasharray:none;stroke-opacity:1"
       d="m 636.1,283.7 h 77.8 v 40.4 h -77.8 z" /><g
       id="g6819"><g
         clip-path="url(#clipPath6825)"
         id="g6821"><text
           id="text6829"
           style="font-variant:normal;font-weight:normal;font-size:14px;font-family:Calibri;-inkscape-font-specification:Calibri;writing-mode:lr-tb;fill:#ffffff;fill-opacity:1;fill-rule:nonzero;stroke:none"
           transform="matrix(1,0,0,-1,658.17,302.55)"><tspan
             id="tspan6827"
             y="0"
             x="0 7.3920002 14.77 17.99 21.209999 27.174">policy</tspan></text>
</g></g><path
       id="path6831"
       style="fill:#ffffff;fill-opacity:0.90196001;fill-rule:evenodd;stroke:none"
       d="m 651.7,279.3 h 70 v 13.4 h -70 z" /><path
       id="path6833"
       style="fill:none;stroke:#4472c4;stroke-width:1;stroke-linecap:butt;stroke-linejoin:miter;stroke-miterlimit:10;stroke-dasharray:none;stroke-opacity:1"
       d="m 651.7,279.3 h 70 v 13.4 h -70 z" /><g
       id="g6835"><g
         clip-path="url(#clipPath6841)"
         id="g6837"><text
           id="text6845"
           style="font-variant:normal;font-weight:normal;font-size:11px;font-family:Calibri;-inkscape-font-specification:Calibri;writing-mode:lr-tb;fill:#000000;fill-opacity:1;fill-rule:nonzero;stroke:none"
           transform="matrix(1,0,0,-1,663.65,282.88)"><tspan
             id="tspan6843"
             y="0"
             x="0 6.9850001 12.353 17.775999 20.57 22.968 29.754999 35.123001 39.743 45.144001 50.534">GET, DELETE</tspan></text>
</g></g><path
       id="path6847"
       style="fill:#4472c4;fill-opacity:1;fill-rule:evenodd;stroke:none"
       d="m 479.3,220.1 h 77.8 v 40.4 h -77.8 z" /><path
       id="path6849"
       style="fill:none;stroke:#ffffff;stroke-width:1;stroke-linecap:butt;stroke-linejoin:miter;stroke-miterlimit:10;stroke-dasharray:none;stroke-opacity:1"
       d="m 479.3,220.1 h 77.8 v 40.4 h -77.8 z" /><g
       id="g6851"><g
         clip-path="url(#clipPath6857)"
         id="g6853"><text
           id="text6861"
           style="font-variant:normal;font-weight:normal;font-size:14px;font-family:Calibri;-inkscape-font-specification:Calibri;writing-mode:lr-tb;fill:#ffffff;fill-opacity:1;fill-rule:nonzero;stroke:none"
           transform="matrix(1,0,0,-1,507.18,238.9)"><tspan
             id="tspan6859"
             y="0"
             x="0 7.3920002 11.396 15.19">nffg</tspan></text>
</g></g><path
       id="path6863"
       style="fill:#ffffff;fill-opacity:0.90196001;fill-rule:evenodd;stroke:none"
       d="m 494.9,215.7 h 70 v 13.4 h -70 z" /><path
       id="path6865"
       style="fill:none;stroke:#4472c4;stroke-width:1;stroke-linecap:butt;stroke-linejoin:miter;stroke-miterlimit:10;stroke-dasharray:none;stroke-opacity:1"
       d="m 494.9,215.7 h 70 v 13.4 h -70 z" /><g
       id="g6867"><g
         clip-path="url(#clipPath6873)"
         id="g6869"><text
           id="text6877"
           style="font-variant:normal;font-weight:normal;font-size:11px;font-family:Calibri;-inkscape-font-specification:Calibri;writing-mode:lr-tb;fill:#000000;fill-opacity:1;fill-rule:nonzero;stroke:none"
           transform="matrix(1,0,0,-1,545.05,219.23)"><tspan
             id="tspan6875"
             y="0"
             x="0 6.9850001 12.353">GET</tspan></text>
</g></g><path
       id="path6879"
       style="fill:#4472c4;fill-opacity:1;fill-rule:evenodd;stroke:none"
       d="m 583.7,220.1 h 78 v 40.4 h -78 z" /><path
       id="path6881"
       style="fill:none;stroke:#ffffff;stroke-width:1;stroke-linecap:butt;stroke-linejoin:miter;stroke-miterlimit:10;stroke-dasharray:none;stroke-opacity:1"
       d="m 583.7,220.1 h 78 v 40.4 h -78 z" /><g
       id="g6883"><g
         clip-path="url(#clipPath6889)"
         id="g6885"><text
           id="text6893"
           style="font-variant:normal;font-weight:normal;font-size:14px;font-family:Calibri;-inkscape-font-specification:Calibri;writing-mode:lr-tb;fill:#ffffff;fill-opacity:1;fill-rule:nonzero;stroke:none"
           transform="matrix(1,0,0,-1,614.7,238.9)"><tspan
             id="tspan6891"
             y="0"
             x="0 5.4039998 10.01">src</tspan></text>
</g></g><path
       id="path6895"
       style="fill:#ffffff;fill-opacity:0.90196001;fill-rule:evenodd;stroke:none"
       d="m 599.3,215.7 h 70.2 v 13.4 h -70.2 z" /><path
       id="path6897"
       style="fill:none;stroke:#4472c4;stroke-width:1;stroke-linecap:butt;stroke-linejoin:miter;stroke-miterlimit:10;stroke-dasharray:none;stroke-opacity:1"
       d="m 599.3,215.7 h 70.2 v 13.4 h -70.2 z" /><g
       id="g6899"><g
         clip-path="url(#clipPath6905)"
         id="g6901"><text
           id="text6909"
           style="font-variant:normal;font-weight:normal;font-size:11px;font-family:Calibri;-inkscape-font-specification:Calibri;writing-mode:lr-tb;fill:#000000;fill-opacity:1;fill-rule:nonzero;stroke:none"
           transform="matrix(1,0,0,-1,649.6,219.23)"><tspan
             id="tspan6907"
             y="0"
             x="0 6.9850001 12.353">GET</tspan></text>
</g></g><path
       id="path6911"
       style="fill:#4472c4;fill-opacity:1;fill-rule:evenodd;stroke:none"
       d="m 688.3,220.1 h 77.8 v 40.4 h -77.8 z" /><path
       id="path6913"
       style="fill:none;stroke:#ffffff;stroke-width:1;stroke-linecap:butt;stroke-linejoin:miter;stroke-miterlimit:10;stroke-dasharray:none;stroke-opacity:1"
       d="m 688.3,220.1 h 77.8 v 40.4 h -77.8 z" /><g
       id="g6915"><g
         clip-path="url(#clipPath6921)"
         id="g6917"><text
           id="text6925"
           style="font-variant:normal;font-weight:normal;font-size:14px;font-family:Calibri;-inkscape-font-specification:Calibri;writing-mode:lr-tb;fill:#ffffff;fill-opacity:1;fill-rule:nonzero;stroke:none"
           transform="matrix(1,0,0,-1,718.63,238.9)"><tspan
             id="tspan6923"
             y="0"
             x="0 7.3920002 12.586">dst</tspan></text>
</g></g><path
       id="path6927"
       style="fill:#ffffff;fill-opacity:0.90196001;fill-rule:evenodd;stroke:none"
       d="m 703.9,215.7 h 70 v 13.4 h -70 z" /><path
       id="path6929"
       style="fill:none;stroke:#4472c4;stroke-width:1;stroke-linecap:butt;stroke-linejoin:miter;stroke-miterlimit:10;stroke-dasharray:none;stroke-opacity:1"
       d="m 703.9,215.7 h 70 v 13.4 h -70 z" /><g
       id="g6931"><g
         clip-path="url(#clipPath6937)"
         id="g6933"><text
           id="text6941"
           style="font-variant:normal;font-weight:normal;font-size:11px;font-family:Calibri;-inkscape-font-specification:Calibri;writing-mode:lr-tb;fill:#000000;fill-opacity:1;fill-rule:nonzero;stroke:none"
           transform="matrix(1,0,0,-1,754.13,219.23)"><tspan
             id="tspan6939"
             y="0"
             x="0 6.9850001 12.353">GET</tspan></text>
</g></g><path
       id="path6943"
       style="fill:#70ad47;fill-opacity:1;fill-rule:evenodd;stroke:none"
       d="m 792.7,220.1 h 78 v 40.4 h -78 z" /><path
       id="path6945"
       style="fill:none;stroke:#ffffff;stroke-width:1;stroke-linecap:butt;stroke-linejoin:miter;stroke-miterlimit:10;stroke-dasharray:none;stroke-opacity:1"
       d="m 792.7,220.1 h 78 v 40.4 h -78 z" /><g
       id="g6947"><g
         clip-path="url(#clipPath6953)"
         id="g6949"><text
           id="text6957"
           style="font-variant:normal;font-weight:normal;font-size:14px;font-family:Calibri;-inkscape-font-specification:Calibri;writing-mode:lr-tb;fill:#ffffff;fill-opacity:1;fill-rule:nonzero;stroke:none"
           transform="matrix(1,0,0,-1,815.55,238.9)"><tspan
             id="tspan6955"
             y="0"
             x="0 4.6059999 11.578 17.01 24.402 27.622">result</tspan></text>
</g></g><path
       id="path6959"
       style="fill:#ffffff;fill-opacity:0.90196001;fill-rule:evenodd;stroke:none"
       d="m 808.3,215.7 h 70.2 v 13.4 h -70.2 z" /><path
       id="path6961"
       style="fill:none;stroke:#4472c4;stroke-width:1;stroke-linecap:butt;stroke-linejoin:miter;stroke-miterlimit:10;stroke-dasharray:none;stroke-opacity:1"
       d="m 808.3,215.7 h 70.2 v 13.4 h -70.2 z" /><g
       id="g6963"><g
         clip-path="url(#clipPath6969)"
         id="g6965"><text
           id="text6973"
           style="font-variant:normal;font-weight:normal;font-size:11px;font-family:Calibri;-inkscape-font-specification:Calibri;writing-mode:lr-tb;fill:#000000;fill-opacity:1;fill-rule:nonzero;stroke:none"
           transform="matrix(1,0,0,-1,830.25,219.23)"><tspan
             id="tspan6971"
             y="0"
             x="0 6.9850001 12.353 17.775999 20.57 22.968 28.566999 35.771999 40.777">GET, POST</tspan></text>
</g></g><path
       id="path6975"
       style="fill:#70ad47;fill-opacity:1;fill-rule:evenodd;stroke:none"
       d="m 859.7,418.7 h 70.2 v 42 h -70.2 z" /><path
       id="path6977"
       style="fill:none;stroke:#ffffff;stroke-width:1;stroke-linecap:butt;stroke-linejoin:miter;stroke-miterlimit:10;stroke-dasharray:none;stroke-opacity:1"
       d="m 859.7,418.7 h 70.2 v 42 h -70.2 z" /><g
       id="g6979"><g
         clip-path="url(#clipPath6985)"
         id="g6981"><text
           id="text6989"
           style="font-variant:normal;font-weight:normal;font-size:16px;font-family:Calibri;-inkscape-font-specification:Calibri;writing-mode:lr-tb;fill:#ffffff;fill-opacity:1;fill-rule:nonzero;stroke:none"
           transform="matrix(1,0,0,-1,879.55,435.35)"><tspan
             id="tspan6987"
             y="0"
             x="0 8.592 17.024 22.384001">Core</tspan></text>
</g></g><path
       id="path6991"
       style="fill:#4472c4;fill-opacity:1;fill-rule:evenodd;stroke:none"
       d="m 859.7,369.5 h 70.2 v 42.2 h -70.2 z" /><path
       id="path6993"
       style="fill:none;stroke:#ffffff;stroke-width:1;stroke-linecap:butt;stroke-linejoin:miter;stroke-miterlimit:10;stroke-dasharray:none;stroke-opacity:1"
       d="m 859.7,369.5 h 70.2 v 42.2 h -70.2 z" /><g
       id="g6995"><g
         clip-path="url(#clipPath7001)"
         id="g6997"><text
           id="text7005"
           style="font-variant:normal;font-weight:normal;font-size:16px;font-family:Calibri;-inkscape-font-specification:Calibri;writing-mode:lr-tb;fill:#ffffff;fill-opacity:1;fill-rule:nonzero;stroke:none"
           transform="matrix(1,0,0,-1,878.35,386.2)"><tspan
             id="tspan7003"
             y="0"
             x="0 7.8080001 14.784 20.143999 25.392">Extra</tspan></text>
</g></g><path
       id="path7007"
       style="fill:#a5a5a5;fill-opacity:1;fill-rule:evenodd;stroke:none"
       d="m 859.7,320.5 h 70.2 v 42 h -70.2 z" /><path
       id="path7009"
       style="fill:none;stroke:#ffffff;stroke-width:1;stroke-linecap:butt;stroke-linejoin:miter;stroke-miterlimit:10;stroke-dasharray:none;stroke-opacity:1"
       d="m 859.7,320.5 h 70.2 v 42 h -70.2 z" /><g
       id="g7011"><g
         clip-path="url(#clipPath7017)"
         id="g7013"><text
           id="text7021"
           style="font-variant:normal;font-weight:normal;font-size:16.02499962px;font-family:Calibri;-inkscape-font-specification:Calibri;writing-mode:lr-tb;fill:#ffffff;fill-opacity:1;fill-rule:nonzero;stroke:none"
           transform="matrix(1,0,0,-1,865.35,337.08)"><tspan
             id="tspan7019"
             y="0"
             x="0 10.35215 18.797325">Not</tspan></text>
</g></g><g
       id="g7023"><g
         clip-path="url(#clipPath7029)"
         id="g7025"><text
           id="text7033"
           style="font-variant:normal;font-weight:normal;font-size:16.02499962px;font-family:Calibri;-inkscape-font-specification:Calibri;writing-mode:lr-tb;fill:#ffffff;fill-opacity:1;fill-rule:nonzero;stroke:none"
           transform="matrix(1,0,0,-1,893.15,337.08)"><tspan
             id="tspan7031"
             y="0"
             x="0 8.413125 14.598775 22.579226">used</tspan></text>
</g></g><g
       id="g7035"><g
         clip-path="url(#clipPath7041)"
         id="g7037"><text
           id="text7045"
           style="font-variant:normal;font-weight:normal;font-size:18px;font-family:Calibri;-inkscape-font-specification:Calibri;writing-mode:lr-tb;fill:#000000;fill-opacity:1;fill-rule:nonzero;stroke:none"
           transform="matrix(1,0,0,-1,866.95,493)"><tspan
             id="tspan7043"
             y="0"
             x="0 7.5599999 16.577999 24.785999 33.75 43.200001 52.577999">Legend:</tspan></text>
</g></g></g></svg>