<?xml version="1.0" encoding="UTF-8" standalone="no"?>
<svg
   xmlns:dc="http://purl.org/dc/elements/1.1/"
   xmlns:cc="http://creativecommons.org/ns#"
   xmlns:rdf="http://www.w3.org/1999/02/22-rdf-syntax-ns#"
   xmlns:svg="http://www.w3.org/2000/svg"
   xmlns="http://www.w3.org/2000/svg"
   viewBox="0 0 1280 720"
   height="720"
   width="1280"
   xml:space="preserve"
   id="svg10"
   version="1.1"><metadata
     id="metadata16"><rdf:RDF><cc:Work
         rdf:about=""><dc:format>image/svg+xml</dc:format><dc:type
           rdf:resource="http://purl.org/dc/dcmitype/StillImage" /><dc:title></dc:title></cc:Work></rdf:RDF></metadata><defs
     id="defs14"><clipPath
       id="clipPath26"
       clipPathUnits="userSpaceOnUse"><path
         style="clip-rule:evenodd"
         id="path24"
         d="M 0,1.2207e-4 H 960 V 540.00012 H 0 Z" /></clipPath><clipPath
       id="clipPath74"
       clipPathUnits="userSpaceOnUse"><path
         style="clip-rule:evenodd"
         id="path72"
         d="M 1.4305e-5,0 H 960.00001 V 540 H 1.4305e-5 Z" /></clipPath><clipPath
       id="clipPath94"
       clipPathUnits="userSpaceOnUse"><path
         style="clip-rule:evenodd"
         id="path92"
         d="M 1.4305e-5,0 H 960.00001 V 540 H 1.4305e-5 Z" /></clipPath><clipPath
       id="clipPath110"
       clipPathUnits="userSpaceOnUse"><path
         style="clip-rule:evenodd"
         id="path108"
         d="M 1.4305e-5,0 H 960.00001 V 540 H 1.4305e-5 Z" /></clipPath><clipPath
       id="clipPath126"
       clipPathUnits="userSpaceOnUse"><path
         style="clip-rule:evenodd"
         id="path124"
         d="M 1.4305e-5,0 H 960.00001 V 540 H 1.4305e-5 Z" /></clipPath><clipPath
       id="clipPath142"
       clipPathUnits="userSpaceOnUse"><path
         style="clip-rule:evenodd"
         id="path140"
         d="M 1.4305e-5,0 H 960.00001 V 540 H 1.4305e-5 Z" /></clipPath><clipPath
       id="clipPath158"
       clipPathUnits="userSpaceOnUse"><path
         style="clip-rule:evenodd"
         id="path156"
         d="M 1.4305e-5,0 H 960.00001 V 540 H 1.4305e-5 Z" /></clipPath><clipPath
       id="clipPath174"
       clipPathUnits="userSpaceOnUse"><path
         style="clip-rule:evenodd"
         id="path172"
         d="M 1.4305e-5,0 H 960.00001 V 540 H 1.4305e-5 Z" /></clipPath><clipPath
       id="clipPath190"
       clipPathUnits="userSpaceOnUse"><path
         style="clip-rule:evenodd"
         id="path188"
         d="M 1.4305e-5,0 H 960.00001 V 540 H 1.4305e-5 Z" /></clipPath><clipPath
       id="clipPath206"
       clipPathUnits="userSpaceOnUse"><path
         style="clip-rule:evenodd"
         id="path204"
         d="M 1.4305e-5,0 H 960.00001 V 540 H 1.4305e-5 Z" /></clipPath><clipPath
       id="clipPath222"
       clipPathUnits="userSpaceOnUse"><path
         style="clip-rule:evenodd"
         id="path220"
         d="M 1.4305e-5,0 H 960.00001 V 540 H 1.4305e-5 Z" /></clipPath><clipPath
       id="clipPath238"
       clipPathUnits="userSpaceOnUse"><path
         style="clip-rule:evenodd"
         id="path236"
         d="M 1.4305e-5,0 H 960.00001 V 540 H 1.4305e-5 Z" /></clipPath><clipPath
       id="clipPath254"
       clipPathUnits="userSpaceOnUse"><path
         style="clip-rule:evenodd"
         id="path252"
         d="M 1.4305e-5,0 H 960.00001 V 540 H 1.4305e-5 Z" /></clipPath><clipPath
       id="clipPath270"
       clipPathUnits="userSpaceOnUse"><path
         style="clip-rule:evenodd"
         id="path268"
         d="M 1.4305e-5,0 H 960.00001 V 540 H 1.4305e-5 Z" /></clipPath><clipPath
       id="clipPath286"
       clipPathUnits="userSpaceOnUse"><path
         style="clip-rule:evenodd"
         id="path284"
         d="M 1.4305e-5,0 H 960.00001 V 540 H 1.4305e-5 Z" /></clipPath><clipPath
       id="clipPath302"
       clipPathUnits="userSpaceOnUse"><path
         style="clip-rule:evenodd"
         id="path300"
         d="M 1.4305e-5,0 H 960.00001 V 540 H 1.4305e-5 Z" /></clipPath><clipPath
       id="clipPath318"
       clipPathUnits="userSpaceOnUse"><path
         style="clip-rule:evenodd"
         id="path316"
         d="M 1.4305e-5,0 H 960.00001 V 540 H 1.4305e-5 Z" /></clipPath><clipPath
       id="clipPath334"
       clipPathUnits="userSpaceOnUse"><path
         style="clip-rule:evenodd"
         id="path332"
         d="M 1.4305e-5,0 H 960.00001 V 540 H 1.4305e-5 Z" /></clipPath><clipPath
       id="clipPath350"
       clipPathUnits="userSpaceOnUse"><path
         style="clip-rule:evenodd"
         id="path348"
         d="M 1.4305e-5,0 H 960.00001 V 540 H 1.4305e-5 Z" /></clipPath><clipPath
       id="clipPath366"
       clipPathUnits="userSpaceOnUse"><path
         style="clip-rule:evenodd"
         id="path364"
         d="M 1.4305e-5,0 H 960.00001 V 540 H 1.4305e-5 Z" /></clipPath><clipPath
       id="clipPath382"
       clipPathUnits="userSpaceOnUse"><path
         style="clip-rule:evenodd"
         id="path380"
         d="M 1.4305e-5,0 H 960.00001 V 540 H 1.4305e-5 Z" /></clipPath><clipPath
       id="clipPath398"
       clipPathUnits="userSpaceOnUse"><path
         style="clip-rule:evenodd"
         id="path396"
         d="M 1.4305e-5,0 H 960.00001 V 540 H 1.4305e-5 Z" /></clipPath><clipPath
       id="clipPath414"
       clipPathUnits="userSpaceOnUse"><path
         style="clip-rule:evenodd"
         id="path412"
         d="M 1.4305e-5,0 H 960.00001 V 540 H 1.4305e-5 Z" /></clipPath><clipPath
       id="clipPath430"
       clipPathUnits="userSpaceOnUse"><path
         style="clip-rule:evenodd"
         id="path428"
         d="M 1.4305e-5,0 H 960.00001 V 540 H 1.4305e-5 Z" /></clipPath><clipPath
       id="clipPath446"
       clipPathUnits="userSpaceOnUse"><path
         style="clip-rule:evenodd"
         id="path444"
         d="M 1.4305e-5,0 H 960.00001 V 540 H 1.4305e-5 Z" /></clipPath><clipPath
       id="clipPath462"
       clipPathUnits="userSpaceOnUse"><path
         style="clip-rule:evenodd"
         id="path460"
         d="M 1.4305e-5,0 H 960.00001 V 540 H 1.4305e-5 Z" /></clipPath><clipPath
       id="clipPath478"
       clipPathUnits="userSpaceOnUse"><path
         style="clip-rule:evenodd"
         id="path476"
         d="M 1.4305e-5,0 H 960.00001 V 540 H 1.4305e-5 Z" /></clipPath><clipPath
       id="clipPath494"
       clipPathUnits="userSpaceOnUse"><path
         style="clip-rule:evenodd"
         id="path492"
         d="M 1.4305e-5,0 H 960.00001 V 540 H 1.4305e-5 Z" /></clipPath><clipPath
       id="clipPath506"
       clipPathUnits="userSpaceOnUse"><path
         style="clip-rule:evenodd"
         id="path504"
         d="M 1.4305e-5,0 H 960.00001 V 540 H 1.4305e-5 Z" /></clipPath><clipPath
       id="clipPath522"
       clipPathUnits="userSpaceOnUse"><path
         style="clip-rule:evenodd"
         id="path520"
         d="M 1.4305e-5,0 H 960.00001 V 540 H 1.4305e-5 Z" /></clipPath><clipPath
       id="clipPath538"
       clipPathUnits="userSpaceOnUse"><path
         style="clip-rule:evenodd"
         id="path536"
         d="M 1.4305e-5,0 H 960.00001 V 540 H 1.4305e-5 Z" /></clipPath><clipPath
       id="clipPath554"
       clipPathUnits="userSpaceOnUse"><path
         style="clip-rule:evenodd"
         id="path552"
         d="M 1.4305e-5,0 H 960.00001 V 540 H 1.4305e-5 Z" /></clipPath><clipPath
       id="clipPath570"
       clipPathUnits="userSpaceOnUse"><path
         style="clip-rule:evenodd"
         id="path568"
         d="M 1.4305e-5,0 H 960.00001 V 540 H 1.4305e-5 Z" /></clipPath><clipPath
       id="clipPath586"
       clipPathUnits="userSpaceOnUse"><path
         style="clip-rule:evenodd"
         id="path584"
         d="M 1.4305e-5,0 H 960.00001 V 540 H 1.4305e-5 Z" /></clipPath><clipPath
       id="clipPath602"
       clipPathUnits="userSpaceOnUse"><path
         style="clip-rule:evenodd"
         id="path600"
         d="M 1.4305e-5,0 H 960.00001 V 540 H 1.4305e-5 Z" /></clipPath><clipPath
       id="clipPath618"
       clipPathUnits="userSpaceOnUse"><path
         style="clip-rule:evenodd"
         id="path616"
         d="M 1.4305e-5,0 H 960.00001 V 540 H 1.4305e-5 Z" /></clipPath><clipPath
       id="clipPath634"
       clipPathUnits="userSpaceOnUse"><path
         style="clip-rule:evenodd"
         id="path632"
         d="M 1.4305e-5,0 H 960.00001 V 540 H 1.4305e-5 Z" /></clipPath><clipPath
       id="clipPath650"
       clipPathUnits="userSpaceOnUse"><path
         style="clip-rule:evenodd"
         id="path648"
         d="M 1.4305e-5,0 H 960.00001 V 540 H 1.4305e-5 Z" /></clipPath><clipPath
       id="clipPath666"
       clipPathUnits="userSpaceOnUse"><path
         style="clip-rule:evenodd"
         id="path664"
         d="M 1.4305e-5,0 H 960.00001 V 540 H 1.4305e-5 Z" /></clipPath><clipPath
       id="clipPath682"
       clipPathUnits="userSpaceOnUse"><path
         style="clip-rule:evenodd"
         id="path680"
         d="M 1.4305e-5,0 H 960.00001 V 540 H 1.4305e-5 Z" /></clipPath><clipPath
       id="clipPath694"
       clipPathUnits="userSpaceOnUse"><path
         style="clip-rule:evenodd"
         id="path692"
         d="M 1.4305e-5,0 H 960.00001 V 540 H 1.4305e-5 Z" /></clipPath><clipPath
       id="clipPath706"
       clipPathUnits="userSpaceOnUse"><path
         style="clip-rule:evenodd"
         id="path704"
         d="M 1.4305e-5,0 H 960.00001 V 540 H 1.4305e-5 Z" /></clipPath></defs><g
     transform="matrix(1.3333333,0,0,-1.3333333,0,720)"
     id="g18"><g
       id="g20"><g
         clip-path="url(#clipPath26)"
         id="g22"><path
           id="path28"
           style="fill:#ffffff;fill-opacity:1;fill-rule:evenodd;stroke:none"
           d="M 0,6.1035e-5 H 960 V 540.00006 H 0 Z" /></g></g><path
       id="path30"
       style="fill:none;stroke:#3d67b1;stroke-width:1;stroke-linecap:butt;stroke-linejoin:miter;stroke-miterlimit:10;stroke-dasharray:none;stroke-opacity:1"
       d="M 674.9,283.7 V 269.81 H 831.66 V 260.4" /><path
       id="path32"
       style="fill:none;stroke:#3d67b1;stroke-width:1;stroke-linecap:butt;stroke-linejoin:miter;stroke-miterlimit:10;stroke-dasharray:none;stroke-opacity:1"
       d="m 674.9,283.7 v -13.89 h 52.25 v -9.41" /><path
       id="path34"
       style="fill:none;stroke:#3d67b1;stroke-width:1;stroke-linecap:butt;stroke-linejoin:miter;stroke-miterlimit:10;stroke-dasharray:none;stroke-opacity:1"
       d="M 674.95,283.7 V 269.81 H 622.7 v -9.41" /><path
       id="path36"
       style="fill:none;stroke:#3d67b1;stroke-width:1;stroke-linecap:butt;stroke-linejoin:miter;stroke-miterlimit:10;stroke-dasharray:none;stroke-opacity:1"
       d="M 675.06,283.7 V 269.81 H 518.3 v -9.41" /><path
       id="path38"
       style="fill:none;stroke:#3d67b1;stroke-width:1;stroke-linecap:butt;stroke-linejoin:miter;stroke-miterlimit:10;stroke-dasharray:none;stroke-opacity:1"
       d="M 674.9,347.5 V 324.2" /><path
       id="path40"
       style="fill:none;stroke:#34599c;stroke-width:1;stroke-linecap:butt;stroke-linejoin:miter;stroke-miterlimit:10;stroke-dasharray:none;stroke-opacity:1"
       d="M 452.9,411.1 V 397.21 H 674.98 V 387.8" /><path
       id="path42"
       style="fill:none;stroke:#3d67b1;stroke-width:1;stroke-linecap:butt;stroke-linejoin:miter;stroke-miterlimit:10;stroke-dasharray:none;stroke-opacity:1"
       d="M 230.9,283.7 V 269.81 H 413.79 V 260.4" /><path
       id="path44"
       style="fill:none;stroke:#3d67b1;stroke-width:1;stroke-linecap:butt;stroke-linejoin:miter;stroke-miterlimit:10;stroke-dasharray:none;stroke-opacity:1"
       d="m 230.9,283.7 v -13.89 h 78.38 v -9.41" /><path
       id="path46"
       style="fill:none;stroke:#3d67b1;stroke-width:1;stroke-linecap:butt;stroke-linejoin:miter;stroke-miterlimit:10;stroke-dasharray:none;stroke-opacity:1"
       d="m 204.7,156.5 v -13.89 h 52.25 v -9.41" /><path
       id="path48"
       style="fill:none;stroke:#3d67b1;stroke-width:1;stroke-linecap:butt;stroke-linejoin:miter;stroke-miterlimit:10;stroke-dasharray:none;stroke-opacity:1"
       d="M 204.75,156.5 V 142.61 H 152.5 v -9.41" /><path
       id="path50"
       style="fill:none;stroke:#3d67b1;stroke-width:1;stroke-linecap:butt;stroke-linejoin:miter;stroke-miterlimit:10;stroke-dasharray:none;stroke-opacity:1"
       d="M 204.7,220.1 V 196.8" /><path
       id="path52"
       style="fill:none;stroke:#3d67b1;stroke-width:1;stroke-linecap:butt;stroke-linejoin:miter;stroke-miterlimit:10;stroke-dasharray:none;stroke-opacity:1"
       d="M 230.83,283.7 V 269.81 H 204.7 v -9.41" /><path
       id="path54"
       style="fill:none;stroke:#3d67b1;stroke-width:1;stroke-linecap:butt;stroke-linejoin:miter;stroke-miterlimit:10;stroke-dasharray:none;stroke-opacity:1"
       d="M 47.9,156.5 V 133.2" /><path
       id="path56"
       style="fill:none;stroke:#3d67b1;stroke-width:1;stroke-linecap:butt;stroke-linejoin:miter;stroke-miterlimit:10;stroke-dasharray:none;stroke-opacity:1"
       d="M 47.9,220.1 V 196.8" /><path
       id="path58"
       style="fill:none;stroke:#3d67b1;stroke-width:1;stroke-linecap:butt;stroke-linejoin:miter;stroke-miterlimit:10;stroke-dasharray:none;stroke-opacity:1"
       d="M 230.79,283.7 V 269.81 H 47.9 v -9.41" /><path
       id="path60"
       style="fill:none;stroke:#3d67b1;stroke-width:1;stroke-linecap:butt;stroke-linejoin:miter;stroke-miterlimit:10;stroke-dasharray:none;stroke-opacity:1"
       d="M 230.9,347.5 V 324.2" /><path
       id="path62"
       style="fill:none;stroke:#34599c;stroke-width:1;stroke-linecap:butt;stroke-linejoin:miter;stroke-miterlimit:10;stroke-dasharray:none;stroke-opacity:1"
       d="M 452.98,411.1 V 397.21 H 230.9 v -9.41" /><path
       id="path64"
       style="fill:#a5a5a5;fill-opacity:1;fill-rule:evenodd;stroke:none"
       d="m 413.9,411.1 h 78 v 40.2 h -78 z" /><path
       id="path66"
       style="fill:none;stroke:#ffffff;stroke-width:1;stroke-linecap:butt;stroke-linejoin:miter;stroke-miterlimit:10;stroke-dasharray:none;stroke-opacity:1"
       d="m 413.9,411.1 h 78 v 40.2 h -78 z" /><g
       id="g68"><g
         clip-path="url(#clipPath74)"
         id="g70"><text
           id="text78"
           style="font-variant:normal;font-weight:normal;font-size:14px;font-family:Calibri;-inkscape-font-specification:Calibri;writing-mode:lr-tb;fill:#ffffff;fill-opacity:1;fill-rule:nonzero;stroke:none"
           transform="matrix(1,0,0,-1,440.85,429.88)"><tspan
             id="tspan76"
             y="0"
             x="0 4.6059999 11.984 19.389999">root</tspan></text>
</g></g><path
       id="path80"
       style="fill:#ffffff;fill-opacity:0.90196001;fill-rule:evenodd;stroke:none"
       d="m 429.5,406.5 h 70.2 v 13.6 h -70.2 z" /><path
       id="path82"
       style="fill:none;stroke:#4472c4;stroke-width:1;stroke-linecap:butt;stroke-linejoin:miter;stroke-miterlimit:10;stroke-dasharray:none;stroke-opacity:1"
       d="m 429.5,406.5 h 70.2 v 13.6 h -70.2 z" /><path
       id="path84"
       style="fill:#70ad47;fill-opacity:1;fill-rule:evenodd;stroke:none"
       d="m 191.9,347.5 h 77.8 v 40.2 h -77.8 z" /><path
       id="path86"
       style="fill:none;stroke:#ffffff;stroke-width:1;stroke-linecap:butt;stroke-linejoin:miter;stroke-miterlimit:10;stroke-dasharray:none;stroke-opacity:1"
       d="m 191.9,347.5 h 77.8 v 40.2 h -77.8 z" /><g
       id="g88"><g
         clip-path="url(#clipPath94)"
         id="g90"><text
           id="text98"
           style="font-variant:normal;font-weight:normal;font-size:14px;font-family:Calibri;-inkscape-font-specification:Calibri;writing-mode:lr-tb;fill:#ffffff;fill-opacity:1;fill-rule:nonzero;stroke:none"
           transform="matrix(1,0,0,-1,217.13,366.2)"><tspan
             id="tspan96"
             y="0"
             x="0 7.3920002 11.396 15.19 21.784">nffgs</tspan></text>
</g></g><path
       id="path100"
       style="fill:#ffffff;fill-opacity:0.90196001;fill-rule:evenodd;stroke:none"
       d="m 207.5,342.9 h 70 v 13.4 h -70 z" /><path
       id="path102"
       style="fill:none;stroke:#4472c4;stroke-width:1;stroke-linecap:butt;stroke-linejoin:miter;stroke-miterlimit:10;stroke-dasharray:none;stroke-opacity:1"
       d="m 207.5,342.9 h 70 v 13.4 h -70 z" /><g
       id="g104"><g
         clip-path="url(#clipPath110)"
         id="g106"><text
           id="text114"
           style="font-variant:normal;font-weight:normal;font-size:11px;font-family:Calibri;-inkscape-font-specification:Calibri;writing-mode:lr-tb;fill:#000000;fill-opacity:1;fill-rule:nonzero;stroke:none"
           transform="matrix(1,0,0,-1,229.2,346.52)"><tspan
             id="tspan112"
             y="0"
             x="0 6.9850001 12.353 17.775999 20.57 22.968 28.566999 35.771999 40.777">GET, POST</tspan></text>
</g></g><path
       id="path116"
       style="fill:#70ad47;fill-opacity:1;fill-rule:evenodd;stroke:none"
       d="m 191.9,283.7 h 77.8 v 40.4 h -77.8 z" /><path
       id="path118"
       style="fill:none;stroke:#ffffff;stroke-width:1;stroke-linecap:butt;stroke-linejoin:miter;stroke-miterlimit:10;stroke-dasharray:none;stroke-opacity:1"
       d="m 191.9,283.7 h 77.8 v 40.4 h -77.8 z" /><g
       id="g120"><g
         clip-path="url(#clipPath126)"
         id="g122"><text
           id="text130"
           style="font-variant:normal;font-weight:normal;font-size:14px;font-family:Calibri;-inkscape-font-specification:Calibri;writing-mode:lr-tb;fill:#ffffff;fill-opacity:1;fill-rule:nonzero;stroke:none"
           transform="matrix(1,0,0,-1,219.73,302.55)"><tspan
             id="tspan128"
             y="0"
             x="0 7.3920002 11.396 15.19">nffg</tspan></text>
</g></g><path
       id="path132"
       style="fill:#ffffff;fill-opacity:0.90196001;fill-rule:evenodd;stroke:none"
       d="m 207.5,279.3 h 70 v 13.4 h -70 z" /><path
       id="path134"
       style="fill:none;stroke:#4472c4;stroke-width:1;stroke-linecap:butt;stroke-linejoin:miter;stroke-miterlimit:10;stroke-dasharray:none;stroke-opacity:1"
       d="m 207.5,279.3 h 70 v 13.4 h -70 z" /><g
       id="g136"><g
         clip-path="url(#clipPath142)"
         id="g138"><text
           id="text146"
           style="font-variant:normal;font-weight:normal;font-size:11px;font-family:Calibri;-inkscape-font-specification:Calibri;writing-mode:lr-tb;fill:#000000;fill-opacity:1;fill-rule:nonzero;stroke:none"
           transform="matrix(1,0,0,-1,219.4,282.88)"><tspan
             id="tspan144"
             y="0"
             x="0 6.9850001 12.353 17.775999 20.57 22.968 29.754999 35.123001 39.743 45.144001 50.534">GET, DELETE</tspan></text>
</g></g><path
       id="path148"
       style="fill:#4472c4;fill-opacity:1;fill-rule:evenodd;stroke:none"
       d="m 8.9,220.1 h 78 v 40.4 h -78 z" /><path
       id="path150"
       style="fill:none;stroke:#ffffff;stroke-width:1;stroke-linecap:butt;stroke-linejoin:miter;stroke-miterlimit:10;stroke-dasharray:none;stroke-opacity:1"
       d="m 8.9,220.1 h 78 v 40.4 h -78 z" /><g
       id="g152"><g
         clip-path="url(#clipPath158)"
         id="g154"><text
           id="text162"
           style="font-variant:normal;font-weight:normal;font-size:14px;font-family:Calibri;-inkscape-font-specification:Calibri;writing-mode:lr-tb;fill:#ffffff;fill-opacity:1;fill-rule:nonzero;stroke:none"
           transform="matrix(1,0,0,-1,30.4,238.9)"><tspan
             id="tspan160"
             y="0"
             x="0 7.3920002 14.77 22.176001 29.148001">nodes</tspan></text>
</g></g><path
       id="path164"
       style="fill:#ffffff;fill-opacity:0.90196001;fill-rule:evenodd;stroke:none"
       d="m 24.5,215.7 h 70.2 v 13.4 H 24.5 Z" /><path
       id="path166"
       style="fill:none;stroke:#4472c4;stroke-width:1;stroke-linecap:butt;stroke-linejoin:miter;stroke-miterlimit:10;stroke-dasharray:none;stroke-opacity:1"
       d="m 24.5,215.7 h 70.2 v 13.4 H 24.5 Z" /><g
       id="g168"><g
         clip-path="url(#clipPath174)"
         id="g170"><text
           id="text178"
           style="font-variant:normal;font-weight:normal;font-size:11px;font-family:Calibri;-inkscape-font-specification:Calibri;writing-mode:lr-tb;fill:#000000;fill-opacity:1;fill-rule:nonzero;stroke:none"
           transform="matrix(1,0,0,-1,74.675,219.23)"><tspan
             id="tspan176"
             y="0"
             x="0 6.9850001 12.353">GET</tspan></text>
</g></g><path
       id="path180"
       style="fill:#4472c4;fill-opacity:1;fill-rule:evenodd;stroke:none"
       d="m 8.9,156.5 h 78 v 40.4 h -78 z" /><path
       id="path182"
       style="fill:none;stroke:#ffffff;stroke-width:1;stroke-linecap:butt;stroke-linejoin:miter;stroke-miterlimit:10;stroke-dasharray:none;stroke-opacity:1"
       d="m 8.9,156.5 h 78 v 40.4 h -78 z" /><g
       id="g184"><g
         clip-path="url(#clipPath190)"
         id="g186"><text
           id="text194"
           style="font-variant:normal;font-weight:normal;font-size:14px;font-family:Calibri;-inkscape-font-specification:Calibri;writing-mode:lr-tb;fill:#ffffff;fill-opacity:1;fill-rule:nonzero;stroke:none"
           transform="matrix(1,0,0,-1,33.2,175.23)"><tspan
             id="tspan192"
             y="0"
             x="0 7.3920002 14.77 22.176001">node</tspan></text>
</g></g><path
       id="path196"
       style="fill:#ffffff;fill-opacity:0.90196001;fill-rule:evenodd;stroke:none"
       d="m 24.5,152.1 h 70.2 v 13.4 H 24.5 Z" /><path
       id="path198"
       style="fill:none;stroke:#4472c4;stroke-width:1;stroke-linecap:butt;stroke-linejoin:miter;stroke-miterlimit:10;stroke-dasharray:none;stroke-opacity:1"
       d="m 24.5,152.1 h 70.2 v 13.4 H 24.5 Z" /><g
       id="g200"><g
         clip-path="url(#clipPath206)"
         id="g202"><text
           id="text210"
           style="font-variant:normal;font-weight:normal;font-size:11px;font-family:Calibri;-inkscape-font-specification:Calibri;writing-mode:lr-tb;fill:#000000;fill-opacity:1;fill-rule:nonzero;stroke:none"
           transform="matrix(1,0,0,-1,74.675,155.55)"><tspan
             id="tspan208"
             y="0"
             x="0 6.9850001 12.353">GET</tspan></text>
</g></g><path
       id="path212"
       style="fill:#4472c4;fill-opacity:1;fill-rule:evenodd;stroke:none"
       d="m 8.9,92.9 h 78 v 40.4 h -78 z" /><path
       id="path214"
       style="fill:none;stroke:#ffffff;stroke-width:1;stroke-linecap:butt;stroke-linejoin:miter;stroke-miterlimit:10;stroke-dasharray:none;stroke-opacity:1"
       d="m 8.9,92.9 h 78 v 40.4 h -78 z" /><g
       id="g216"><g
         clip-path="url(#clipPath222)"
         id="g218"><text
           id="text226"
           style="font-variant:normal;font-weight:normal;font-size:14px;font-family:Calibri;-inkscape-font-specification:Calibri;writing-mode:lr-tb;fill:#ffffff;fill-opacity:1;fill-rule:nonzero;stroke:none"
           transform="matrix(1,0,0,-1,35,111.57)"><tspan
             id="tspan224"
             y="0"
             x="0 3.22 6.4400001 13.79 20.006001">links</tspan></text>
</g></g><path
       id="path228"
       style="fill:#ffffff;fill-opacity:0.90196001;fill-rule:evenodd;stroke:none"
       d="m 24.5,88.5 h 70.2 v 13.4 H 24.5 Z" /><path
       id="path230"
       style="fill:none;stroke:#4472c4;stroke-width:1;stroke-linecap:butt;stroke-linejoin:miter;stroke-miterlimit:10;stroke-dasharray:none;stroke-opacity:1"
       d="m 24.5,88.5 h 70.2 v 13.4 H 24.5 Z" /><g
       id="g232"><g
         clip-path="url(#clipPath238)"
         id="g234"><text
           id="text242"
           style="font-variant:normal;font-weight:normal;font-size:11px;font-family:Calibri;-inkscape-font-specification:Calibri;writing-mode:lr-tb;fill:#000000;fill-opacity:1;fill-rule:nonzero;stroke:none"
           transform="matrix(1,0,0,-1,74.675,91.9)"><tspan
             id="tspan240"
             y="0"
             x="0 6.9850001 12.353">GET</tspan></text>
</g></g><path
       id="path244"
       style="fill:#4472c4;fill-opacity:1;fill-rule:evenodd;stroke:none"
       d="m 165.7,220.1 h 78 v 40.4 h -78 z" /><path
       id="path246"
       style="fill:none;stroke:#ffffff;stroke-width:1;stroke-linecap:butt;stroke-linejoin:miter;stroke-miterlimit:10;stroke-dasharray:none;stroke-opacity:1"
       d="m 165.7,220.1 h 78 v 40.4 h -78 z" /><g
       id="g248"><g
         clip-path="url(#clipPath254)"
         id="g250"><text
           id="text258"
           style="font-variant:normal;font-weight:normal;font-size:14px;font-family:Calibri;-inkscape-font-specification:Calibri;writing-mode:lr-tb;fill:#ffffff;fill-opacity:1;fill-rule:nonzero;stroke:none"
           transform="matrix(1,0,0,-1,191.77,238.9)"><tspan
             id="tspan256"
             y="0"
             x="0 3.22 6.4400001 13.79 20.048">links</tspan></text>
</g></g><path
       id="path260"
       style="fill:#ffffff;fill-opacity:0.90196001;fill-rule:evenodd;stroke:none"
       d="m 181.3,215.7 h 70.2 v 13.4 h -70.2 z" /><path
       id="path262"
       style="fill:none;stroke:#4472c4;stroke-width:1;stroke-linecap:butt;stroke-linejoin:miter;stroke-miterlimit:10;stroke-dasharray:none;stroke-opacity:1"
       d="m 181.3,215.7 h 70.2 v 13.4 h -70.2 z" /><g
       id="g264"><g
         clip-path="url(#clipPath270)"
         id="g266"><text
           id="text274"
           style="font-variant:normal;font-weight:normal;font-size:11px;font-family:Calibri;-inkscape-font-specification:Calibri;writing-mode:lr-tb;fill:#000000;fill-opacity:1;fill-rule:nonzero;stroke:none"
           transform="matrix(1,0,0,-1,231.48,219.23)"><tspan
             id="tspan272"
             y="0"
             x="0 6.9850001 12.353">GET</tspan></text>
</g></g><path
       id="path276"
       style="fill:#4472c4;fill-opacity:1;fill-rule:evenodd;stroke:none"
       d="m 165.7,156.5 h 78 v 40.4 h -78 z" /><path
       id="path278"
       style="fill:none;stroke:#ffffff;stroke-width:1;stroke-linecap:butt;stroke-linejoin:miter;stroke-miterlimit:10;stroke-dasharray:none;stroke-opacity:1"
       d="m 165.7,156.5 h 78 v 40.4 h -78 z" /><g
       id="g280"><g
         clip-path="url(#clipPath286)"
         id="g282"><text
           id="text290"
           style="font-variant:normal;font-weight:normal;font-size:14px;font-family:Calibri;-inkscape-font-specification:Calibri;writing-mode:lr-tb;fill:#ffffff;fill-opacity:1;fill-rule:nonzero;stroke:none"
           transform="matrix(1,0,0,-1,194.4,175.23)"><tspan
             id="tspan288"
             y="0"
             x="0 3.22 6.4400001 13.79">link</tspan></text>
</g></g><path
       id="path292"
       style="fill:#ffffff;fill-opacity:0.90196001;fill-rule:evenodd;stroke:none"
       d="m 181.3,152.1 h 70.2 v 13.4 h -70.2 z" /><path
       id="path294"
       style="fill:none;stroke:#4472c4;stroke-width:1;stroke-linecap:butt;stroke-linejoin:miter;stroke-miterlimit:10;stroke-dasharray:none;stroke-opacity:1"
       d="m 181.3,152.1 h 70.2 v 13.4 h -70.2 z" /><g
       id="g296"><g
         clip-path="url(#clipPath302)"
         id="g298"><text
           id="text306"
           style="font-variant:normal;font-weight:normal;font-size:11px;font-family:Calibri;-inkscape-font-specification:Calibri;writing-mode:lr-tb;fill:#000000;fill-opacity:1;fill-rule:nonzero;stroke:none"
           transform="matrix(1,0,0,-1,231.48,155.55)"><tspan
             id="tspan304"
             y="0"
             x="0 6.9850001 12.353">GET</tspan></text>
</g></g><path
       id="path308"
       style="fill:#4472c4;fill-opacity:1;fill-rule:evenodd;stroke:none"
       d="m 113.5,92.9 h 77.8 v 40.4 h -77.8 z" /><path
       id="path310"
       style="fill:none;stroke:#ffffff;stroke-width:1;stroke-linecap:butt;stroke-linejoin:miter;stroke-miterlimit:10;stroke-dasharray:none;stroke-opacity:1"
       d="m 113.5,92.9 h 77.8 v 40.4 h -77.8 z" /><g
       id="g312"><g
         clip-path="url(#clipPath318)"
         id="g314"><text
           id="text322"
           style="font-variant:normal;font-weight:normal;font-size:14px;font-family:Calibri;-inkscape-font-specification:Calibri;writing-mode:lr-tb;fill:#ffffff;fill-opacity:1;fill-rule:nonzero;stroke:none"
           transform="matrix(1,0,0,-1,144.33,111.57)"><tspan
             id="tspan320"
             y="0"
             x="0 5.4039998 10.01">src</tspan></text>
</g></g><path
       id="path324"
       style="fill:#ffffff;fill-opacity:0.90196001;fill-rule:evenodd;stroke:none"
       d="m 129.1,88.5 h 70 v 13.4 h -70 z" /><path
       id="path326"
       style="fill:none;stroke:#4472c4;stroke-width:1;stroke-linecap:butt;stroke-linejoin:miter;stroke-miterlimit:10;stroke-dasharray:none;stroke-opacity:1"
       d="m 129.1,88.5 h 70 v 13.4 h -70 z" /><g
       id="g328"><g
         clip-path="url(#clipPath334)"
         id="g330"><text
           id="text338"
           style="font-variant:normal;font-weight:normal;font-size:11px;font-family:Calibri;-inkscape-font-specification:Calibri;writing-mode:lr-tb;fill:#000000;fill-opacity:1;fill-rule:nonzero;stroke:none"
           transform="matrix(1,0,0,-1,179.2,91.9)"><tspan
             id="tspan336"
             y="0"
             x="0 6.9850001 12.353">GET</tspan></text>
</g></g><path
       id="path340"
       style="fill:#4472c4;fill-opacity:1;fill-rule:evenodd;stroke:none"
       d="m 218.1,92.9 h 77.8 v 40.4 h -77.8 z" /><path
       id="path342"
       style="fill:none;stroke:#ffffff;stroke-width:1;stroke-linecap:butt;stroke-linejoin:miter;stroke-miterlimit:10;stroke-dasharray:none;stroke-opacity:1"
       d="m 218.1,92.9 h 77.8 v 40.4 h -77.8 z" /><g
       id="g344"><g
         clip-path="url(#clipPath350)"
         id="g346"><text
           id="text354"
           style="font-variant:normal;font-weight:normal;font-size:14px;font-family:Calibri;-inkscape-font-specification:Calibri;writing-mode:lr-tb;fill:#ffffff;fill-opacity:1;fill-rule:nonzero;stroke:none"
           transform="matrix(1,0,0,-1,248.25,111.57)"><tspan
             id="tspan352"
             y="0"
             x="0 7.3920002 12.586">dst</tspan></text>
</g></g><path
       id="path356"
       style="fill:#ffffff;fill-opacity:0.90196001;fill-rule:evenodd;stroke:none"
       d="m 233.5,88.5 h 70.2 v 13.4 h -70.2 z" /><path
       id="path358"
       style="fill:none;stroke:#4472c4;stroke-width:1;stroke-linecap:butt;stroke-linejoin:miter;stroke-miterlimit:10;stroke-dasharray:none;stroke-opacity:1"
       d="m 233.5,88.5 h 70.2 v 13.4 h -70.2 z" /><g
       id="g360"><g
         clip-path="url(#clipPath366)"
         id="g362"><text
           id="text370"
           style="font-variant:normal;font-weight:normal;font-size:11px;font-family:Calibri;-inkscape-font-specification:Calibri;writing-mode:lr-tb;fill:#000000;fill-opacity:1;fill-rule:nonzero;stroke:none"
           transform="matrix(1,0,0,-1,283.75,91.9)"><tspan
             id="tspan368"
             y="0"
             x="0 6.9850001 12.353">GET</tspan></text>
</g></g><path
       id="path372"
       style="fill:#70ad47;fill-opacity:1;fill-rule:evenodd;stroke:none"
       d="m 270.3,220.1 h 77.8 v 40.4 h -77.8 z" /><path
       id="path374"
       style="fill:none;stroke:#ffffff;stroke-width:1;stroke-linecap:butt;stroke-linejoin:miter;stroke-miterlimit:10;stroke-dasharray:none;stroke-opacity:1"
       d="m 270.3,220.1 h 77.8 v 40.4 h -77.8 z" /><g
       id="g376"><g
         clip-path="url(#clipPath382)"
         id="g378"><text
           id="text386"
           style="font-variant:normal;font-weight:normal;font-size:14px;font-family:Calibri;-inkscape-font-specification:Calibri;writing-mode:lr-tb;fill:#ffffff;fill-opacity:1;fill-rule:nonzero;stroke:none"
           transform="matrix(1,0,0,-1,287.73,238.9)"><tspan
             id="tspan384"
             y="0"
             x="0 7.3920002 14.77 17.99 21.209999 27.174 30.393999 37.366001">policies</tspan></text>
</g></g><path
       id="path388"
       style="fill:#ffffff;fill-opacity:0.90196001;fill-rule:evenodd;stroke:none"
       d="m 285.9,215.7 h 70 v 13.4 h -70 z" /><path
       id="path390"
       style="fill:none;stroke:#4472c4;stroke-width:1;stroke-linecap:butt;stroke-linejoin:miter;stroke-miterlimit:10;stroke-dasharray:none;stroke-opacity:1"
       d="m 285.9,215.7 h 70 v 13.4 h -70 z" /><g
       id="g392"><g
         clip-path="url(#clipPath398)"
         id="g394"><text
           id="text402"
           style="font-variant:normal;font-weight:normal;font-size:11px;font-family:Calibri;-inkscape-font-specification:Calibri;writing-mode:lr-tb;fill:#000000;fill-opacity:1;fill-rule:nonzero;stroke:none"
           transform="matrix(1,0,0,-1,336,219.23)"><tspan
             id="tspan400"
             y="0"
             x="0 6.9850001 12.353">GET</tspan></text>
</g></g><path
       id="path404"
       style="fill:#70ad47;fill-opacity:1;fill-rule:evenodd;stroke:none"
       d="m 374.7,220.1 h 78 v 40.4 h -78 z" /><path
       id="path406"
       style="fill:none;stroke:#ffffff;stroke-width:1;stroke-linecap:butt;stroke-linejoin:miter;stroke-miterlimit:10;stroke-dasharray:none;stroke-opacity:1"
       d="m 374.7,220.1 h 78 v 40.4 h -78 z" /><g
       id="g408"><g
         clip-path="url(#clipPath414)"
         id="g410"><text
           id="text418"
           style="font-variant:normal;font-weight:normal;font-size:14px;font-family:Calibri;-inkscape-font-specification:Calibri;writing-mode:lr-tb;fill:#ffffff;fill-opacity:1;fill-rule:nonzero;stroke:none"
           transform="matrix(1,0,0,-1,376.25,238.9)"><tspan
             id="tspan416"
             y="0"
             x="0 7.3779998 14.784 18.004 21.224001 28.573999 35.546001 42.574001 47.18 54.152 59.584 66.975998 70.195999">online_result</tspan></text>
</g></g><path
       id="path420"
       style="fill:#ffffff;fill-opacity:0.90196001;fill-rule:evenodd;stroke:none"
       d="m 390.3,215.7 h 70.2 v 13.4 h -70.2 z" /><path
       id="path422"
       style="fill:none;stroke:#4472c4;stroke-width:1;stroke-linecap:butt;stroke-linejoin:miter;stroke-miterlimit:10;stroke-dasharray:none;stroke-opacity:1"
       d="m 390.3,215.7 h 70.2 v 13.4 h -70.2 z" /><g
       id="g424"><g
         clip-path="url(#clipPath430)"
         id="g426"><text
           id="text434"
           style="font-variant:normal;font-weight:normal;font-size:11px;font-family:Calibri;-inkscape-font-specification:Calibri;writing-mode:lr-tb;fill:#000000;fill-opacity:1;fill-rule:nonzero;stroke:none"
           transform="matrix(1,0,0,-1,435.13,219.23)"><tspan
             id="tspan432"
             y="0"
             x="0 5.599 12.804 17.809">POST</tspan></text>
</g></g><path
       id="path436"
       style="fill:#70ad47;fill-opacity:1;fill-rule:evenodd;stroke:none"
       d="m 636.1,347.5 h 77.8 v 40.2 h -77.8 z" /><path
       id="path438"
       style="fill:none;stroke:#ffffff;stroke-width:1;stroke-linecap:butt;stroke-linejoin:miter;stroke-miterlimit:10;stroke-dasharray:none;stroke-opacity:1"
       d="m 636.1,347.5 h 77.8 v 40.2 h -77.8 z" /><g
       id="g440"><g
         clip-path="url(#clipPath446)"
         id="g442"><text
           id="text450"
           style="font-variant:normal;font-weight:normal;font-size:14px;font-family:Calibri;-inkscape-font-specification:Calibri;writing-mode:lr-tb;fill:#ffffff;fill-opacity:1;fill-rule:nonzero;stroke:none"
           transform="matrix(1,0,0,-1,653.58,366.2)"><tspan
             id="tspan448"
             y="0"
             x="0 7.3920002 14.77 17.99 21.209999 27.174 30.393999 37.366001">policies</tspan></text>
</g></g><path
       id="path452"
       style="fill:#ffffff;fill-opacity:0.90196001;fill-rule:evenodd;stroke:none"
       d="m 651.7,342.9 h 70 v 13.4 h -70 z" /><path
       id="path454"
       style="fill:none;stroke:#4472c4;stroke-width:1;stroke-linecap:butt;stroke-linejoin:miter;stroke-miterlimit:10;stroke-dasharray:none;stroke-opacity:1"
       d="m 651.7,342.9 h 70 v 13.4 h -70 z" /><g
       id="g456"><g
         clip-path="url(#clipPath462)"
         id="g458"><text
           id="text466"
           style="font-variant:normal;font-weight:normal;font-size:11px;font-family:Calibri;-inkscape-font-specification:Calibri;writing-mode:lr-tb;fill:#000000;fill-opacity:1;fill-rule:nonzero;stroke:none"
           transform="matrix(1,0,0,-1,701.85,346.52)"><tspan
             id="tspan464"
             y="0"
             x="0 6.9850001 12.353">GET</tspan></text>
</g></g><path
       id="path468"
       style="fill:#70ad47;fill-opacity:1;fill-rule:evenodd;stroke:none"
       d="m 636.1,283.7 h 77.8 v 40.4 h -77.8 z" /><path
       id="path470"
       style="fill:none;stroke:#ffffff;stroke-width:1;stroke-linecap:butt;stroke-linejoin:miter;stroke-miterlimit:10;stroke-dasharray:none;stroke-opacity:1"
       d="m 636.1,283.7 h 77.8 v 40.4 h -77.8 z" /><g
       id="g472"><g
         clip-path="url(#clipPath478)"
         id="g474"><text
           id="text482"
           style="font-variant:normal;font-weight:normal;font-size:14px;font-family:Calibri;-inkscape-font-specification:Calibri;writing-mode:lr-tb;fill:#ffffff;fill-opacity:1;fill-rule:nonzero;stroke:none"
           transform="matrix(1,0,0,-1,658.17,302.55)"><tspan
             id="tspan480"
             y="0"
             x="0 7.3920002 14.77 17.99 21.209999 27.174">policy</tspan></text>
</g></g><path
       id="path484"
       style="fill:#ffffff;fill-opacity:0.90196001;fill-rule:evenodd;stroke:none"
       d="m 651.7,279.3 h 70 v 13.4 h -70 z" /><path
       id="path486"
       style="fill:none;stroke:#4472c4;stroke-width:1;stroke-linecap:butt;stroke-linejoin:miter;stroke-miterlimit:10;stroke-dasharray:none;stroke-opacity:1"
       d="m 651.7,279.3 h 70 v 13.4 h -70 z" /><g
       id="g488"><g
         clip-path="url(#clipPath494)"
         id="g490"><text
           id="text498"
           style="font-variant:normal;font-weight:normal;font-size:9px;font-family:Calibri;-inkscape-font-specification:Calibri;writing-mode:lr-tb;fill:#000000;fill-opacity:1;fill-rule:nonzero;stroke:none"
           transform="matrix(1,0,0,-1,655.25,283.58)"><tspan
             id="tspan496"
             y="0"
             x="0 5.598 9.9899998 14.373 16.622999 18.792 23.391001 29.169001 33.578999 35.775002">GET, PUT, </tspan></text>
</g></g><g
       id="g500"><g
         clip-path="url(#clipPath506)"
         id="g502"><text
           id="text510"
           style="font-variant:normal;font-weight:normal;font-size:9px;font-family:Calibri;-inkscape-font-specification:Calibri;writing-mode:lr-tb;fill:#000000;fill-opacity:1;fill-rule:nonzero;stroke:none"
           transform="matrix(1,0,0,-1,693.05,283.58)"><tspan
             id="tspan508"
             y="0"
             x="0 5.5890002 9.9809999 13.779 18.171 22.554001">DELETE</tspan></text>
</g></g><path
       id="path512"
       style="fill:#4472c4;fill-opacity:1;fill-rule:evenodd;stroke:none"
       d="m 479.3,220.1 h 77.8 v 40.4 h -77.8 z" /><path
       id="path514"
       style="fill:none;stroke:#ffffff;stroke-width:1;stroke-linecap:butt;stroke-linejoin:miter;stroke-miterlimit:10;stroke-dasharray:none;stroke-opacity:1"
       d="m 479.3,220.1 h 77.8 v 40.4 h -77.8 z" /><g
       id="g516"><g
         clip-path="url(#clipPath522)"
         id="g518"><text
           id="text526"
           style="font-variant:normal;font-weight:normal;font-size:14px;font-family:Calibri;-inkscape-font-specification:Calibri;writing-mode:lr-tb;fill:#ffffff;fill-opacity:1;fill-rule:nonzero;stroke:none"
           transform="matrix(1,0,0,-1,507.18,238.9)"><tspan
             id="tspan524"
             y="0"
             x="0 7.3920002 11.396 15.19">nffg</tspan></text>
</g></g><path
       id="path528"
       style="fill:#ffffff;fill-opacity:0.90196001;fill-rule:evenodd;stroke:none"
       d="m 494.9,215.7 h 70 v 13.4 h -70 z" /><path
       id="path530"
       style="fill:none;stroke:#4472c4;stroke-width:1;stroke-linecap:butt;stroke-linejoin:miter;stroke-miterlimit:10;stroke-dasharray:none;stroke-opacity:1"
       d="m 494.9,215.7 h 70 v 13.4 h -70 z" /><g
       id="g532"><g
         clip-path="url(#clipPath538)"
         id="g534"><text
           id="text542"
           style="font-variant:normal;font-weight:normal;font-size:11px;font-family:Calibri;-inkscape-font-specification:Calibri;writing-mode:lr-tb;fill:#000000;fill-opacity:1;fill-rule:nonzero;stroke:none"
           transform="matrix(1,0,0,-1,545.05,219.23)"><tspan
             id="tspan540"
             y="0"
             x="0 6.9850001 12.353">GET</tspan></text>
</g></g><path
       id="path544"
       style="fill:#4472c4;fill-opacity:1;fill-rule:evenodd;stroke:none"
       d="m 583.7,220.1 h 78 v 40.4 h -78 z" /><path
       id="path546"
       style="fill:none;stroke:#ffffff;stroke-width:1;stroke-linecap:butt;stroke-linejoin:miter;stroke-miterlimit:10;stroke-dasharray:none;stroke-opacity:1"
       d="m 583.7,220.1 h 78 v 40.4 h -78 z" /><g
       id="g548"><g
         clip-path="url(#clipPath554)"
         id="g550"><text
           id="text558"
           style="font-variant:normal;font-weight:normal;font-size:14px;font-family:Calibri;-inkscape-font-specification:Calibri;writing-mode:lr-tb;fill:#ffffff;fill-opacity:1;fill-rule:nonzero;stroke:none"
           transform="matrix(1,0,0,-1,614.7,238.9)"><tspan
             id="tspan556"
             y="0"
             x="0 5.4039998 10.01">src</tspan></text>
</g></g><path
       id="path560"
       style="fill:#ffffff;fill-opacity:0.90196001;fill-rule:evenodd;stroke:none"
       d="m 599.3,215.7 h 70.2 v 13.4 h -70.2 z" /><path
       id="path562"
       style="fill:none;stroke:#4472c4;stroke-width:1;stroke-linecap:butt;stroke-linejoin:miter;stroke-miterlimit:10;stroke-dasharray:none;stroke-opacity:1"
       d="m 599.3,215.7 h 70.2 v 13.4 h -70.2 z" /><g
       id="g564"><g
         clip-path="url(#clipPath570)"
         id="g566"><text
           id="text574"
           style="font-variant:normal;font-weight:normal;font-size:11px;font-family:Calibri;-inkscape-font-specification:Calibri;writing-mode:lr-tb;fill:#000000;fill-opacity:1;fill-rule:nonzero;stroke:none"
           transform="matrix(1,0,0,-1,649.6,219.23)"><tspan
             id="tspan572"
             y="0"
             x="0 6.9850001 12.353">GET</tspan></text>
</g></g><path
       id="path576"
       style="fill:#4472c4;fill-opacity:1;fill-rule:evenodd;stroke:none"
       d="m 688.3,220.1 h 77.8 v 40.4 h -77.8 z" /><path
       id="path578"
       style="fill:none;stroke:#ffffff;stroke-width:1;stroke-linecap:butt;stroke-linejoin:miter;stroke-miterlimit:10;stroke-dasharray:none;stroke-opacity:1"
       d="m 688.3,220.1 h 77.8 v 40.4 h -77.8 z" /><g
       id="g580"><g
         clip-path="url(#clipPath586)"
         id="g582"><text
           id="text590"
           style="font-variant:normal;font-weight:normal;font-size:14px;font-family:Calibri;-inkscape-font-specification:Calibri;writing-mode:lr-tb;fill:#ffffff;fill-opacity:1;fill-rule:nonzero;stroke:none"
           transform="matrix(1,0,0,-1,718.63,238.9)"><tspan
             id="tspan588"
             y="0"
             x="0 7.3920002 12.586">dst</tspan></text>
</g></g><path
       id="path592"
       style="fill:#ffffff;fill-opacity:0.90196001;fill-rule:evenodd;stroke:none"
       d="m 703.9,215.7 h 70 v 13.4 h -70 z" /><path
       id="path594"
       style="fill:none;stroke:#4472c4;stroke-width:1;stroke-linecap:butt;stroke-linejoin:miter;stroke-miterlimit:10;stroke-dasharray:none;stroke-opacity:1"
       d="m 703.9,215.7 h 70 v 13.4 h -70 z" /><g
       id="g596"><g
         clip-path="url(#clipPath602)"
         id="g598"><text
           id="text606"
           style="font-variant:normal;font-weight:normal;font-size:11px;font-family:Calibri;-inkscape-font-specification:Calibri;writing-mode:lr-tb;fill:#000000;fill-opacity:1;fill-rule:nonzero;stroke:none"
           transform="matrix(1,0,0,-1,754.13,219.23)"><tspan
             id="tspan604"
             y="0"
             x="0 6.9850001 12.353">GET</tspan></text>
</g></g><path
       id="path608"
       style="fill:#70ad47;fill-opacity:1;fill-rule:evenodd;stroke:none"
       d="m 792.7,220.1 h 78 v 40.4 h -78 z" /><path
       id="path610"
       style="fill:none;stroke:#ffffff;stroke-width:1;stroke-linecap:butt;stroke-linejoin:miter;stroke-miterlimit:10;stroke-dasharray:none;stroke-opacity:1"
       d="m 792.7,220.1 h 78 v 40.4 h -78 z" /><g
       id="g612"><g
         clip-path="url(#clipPath618)"
         id="g614"><text
           id="text622"
           style="font-variant:normal;font-weight:normal;font-size:14px;font-family:Calibri;-inkscape-font-specification:Calibri;writing-mode:lr-tb;fill:#ffffff;fill-opacity:1;fill-rule:nonzero;stroke:none"
           transform="matrix(1,0,0,-1,815.55,238.9)"><tspan
             id="tspan620"
             y="0"
             x="0 4.6059999 11.578 17.01 24.402 27.622">result</tspan></text>
</g></g><path
       id="path624"
       style="fill:#ffffff;fill-opacity:0.90196001;fill-rule:evenodd;stroke:none"
       d="m 808.3,215.7 h 70.2 v 13.4 h -70.2 z" /><path
       id="path626"
       style="fill:none;stroke:#4472c4;stroke-width:1;stroke-linecap:butt;stroke-linejoin:miter;stroke-miterlimit:10;stroke-dasharray:none;stroke-opacity:1"
       d="m 808.3,215.7 h 70.2 v 13.4 h -70.2 z" /><g
       id="g628"><g
         clip-path="url(#clipPath634)"
         id="g630"><text
           id="text638"
           style="font-variant:normal;font-weight:normal;font-size:11px;font-family:Calibri;-inkscape-font-specification:Calibri;writing-mode:lr-tb;fill:#000000;fill-opacity:1;fill-rule:nonzero;stroke:none"
           transform="matrix(1,0,0,-1,830.25,219.23)"><tspan
             id="tspan636"
             y="0"
             x="0 6.9850001 12.353 17.775999 20.57 22.968 28.566999 35.771999 40.777">GET, POST</tspan></text>
</g></g><path
       id="path640"
       style="fill:#70ad47;fill-opacity:1;fill-rule:evenodd;stroke:none"
       d="m 859.7,418.7 h 70.2 v 42 h -70.2 z" /><path
       id="path642"
       style="fill:none;stroke:#ffffff;stroke-width:1;stroke-linecap:butt;stroke-linejoin:miter;stroke-miterlimit:10;stroke-dasharray:none;stroke-opacity:1"
       d="m 859.7,418.7 h 70.2 v 42 h -70.2 z" /><g
       id="g644"><g
         clip-path="url(#clipPath650)"
         id="g646"><text
           id="text654"
           style="font-variant:normal;font-weight:normal;font-size:16px;font-family:Calibri;-inkscape-font-specification:Calibri;writing-mode:lr-tb;fill:#ffffff;fill-opacity:1;fill-rule:nonzero;stroke:none"
           transform="matrix(1,0,0,-1,879.55,435.35)"><tspan
             id="tspan652"
             y="0"
             x="0 8.592 17.024 22.384001">Core</tspan></text>
</g></g><path
       id="path656"
       style="fill:#4472c4;fill-opacity:1;fill-rule:evenodd;stroke:none"
       d="m 859.7,369.5 h 70.2 v 42.2 h -70.2 z" /><path
       id="path658"
       style="fill:none;stroke:#ffffff;stroke-width:1;stroke-linecap:butt;stroke-linejoin:miter;stroke-miterlimit:10;stroke-dasharray:none;stroke-opacity:1"
       d="m 859.7,369.5 h 70.2 v 42.2 h -70.2 z" /><g
       id="g660"><g
         clip-path="url(#clipPath666)"
         id="g662"><text
           id="text670"
           style="font-variant:normal;font-weight:normal;font-size:16px;font-family:Calibri;-inkscape-font-specification:Calibri;writing-mode:lr-tb;fill:#ffffff;fill-opacity:1;fill-rule:nonzero;stroke:none"
           transform="matrix(1,0,0,-1,878.35,386.2)"><tspan
             id="tspan668"
             y="0"
             x="0 7.8080001 14.784 20.143999 25.392">Extra</tspan></text>
</g></g><path
       id="path672"
       style="fill:#a5a5a5;fill-opacity:1;fill-rule:evenodd;stroke:none"
       d="m 859.7,320.5 h 70.2 v 42 h -70.2 z" /><path
       id="path674"
       style="fill:none;stroke:#ffffff;stroke-width:1;stroke-linecap:butt;stroke-linejoin:miter;stroke-miterlimit:10;stroke-dasharray:none;stroke-opacity:1"
       d="m 859.7,320.5 h 70.2 v 42 h -70.2 z" /><g
       id="g676"><g
         clip-path="url(#clipPath682)"
         id="g678"><text
           id="text686"
           style="font-variant:normal;font-weight:normal;font-size:16.02499962px;font-family:Calibri;-inkscape-font-specification:Calibri;writing-mode:lr-tb;fill:#ffffff;fill-opacity:1;fill-rule:nonzero;stroke:none"
           transform="matrix(1,0,0,-1,865.35,337.08)"><tspan
             id="tspan684"
             y="0"
             x="0 10.35215 18.797325">Not</tspan></text>
</g></g><g
       id="g688"><g
         clip-path="url(#clipPath694)"
         id="g690"><text
           id="text698"
           style="font-variant:normal;font-weight:normal;font-size:16.02499962px;font-family:Calibri;-inkscape-font-specification:Calibri;writing-mode:lr-tb;fill:#ffffff;fill-opacity:1;fill-rule:nonzero;stroke:none"
           transform="matrix(1,0,0,-1,893.15,337.08)"><tspan
             id="tspan696"
             y="0"
             x="0 8.413125 14.598775 22.579226">used</tspan></text>
</g></g><g
       id="g700"><g
         clip-path="url(#clipPath706)"
         id="g702"><text
           id="text710"
           style="font-variant:normal;font-weight:normal;font-size:18px;font-family:Calibri;-inkscape-font-specification:Calibri;writing-mode:lr-tb;fill:#000000;fill-opacity:1;fill-rule:nonzero;stroke:none"
           transform="matrix(1,0,0,-1,866.95,493)"><tspan
             id="tspan708"
             y="0"
             x="0 7.5599999 16.577999 24.785999 33.75 43.200001 52.577999">Legend:</tspan></text>
</g></g></g></svg>